<svg width="80" height="71" viewBox="0 0 80 71" fill="none" xmlns="http://www.w3.org/2000/svg">
<g clip-path="url(#clip0_106_452)">
<path d="M77.3387 9.43412C77.0504 9.43412 76.7667 9.43412 76.4785 9.43412H61.4999C60.1759 9.43412 58.8473 9.42057 57.5188 9.43864C56.9333 9.44768 56.6496 9.2308 56.6721 8.61632C56.6902 8.20064 56.6811 7.78044 56.6721 7.36476C56.555 3.28025 53.5557 0.126501 49.4936 0.067764C43.2022 -0.0271196 36.9063 -0.0135648 30.6149 0.067764C26.9086 0.112947 24.1209 2.6748 23.522 6.33911C23.3913 7.12077 23.4184 7.90243 23.4184 8.68409C23.4184 9.21273 23.1842 9.44768 22.6618 9.43864C22.4051 9.42961 22.1394 9.43864 21.8827 9.43864C15.5643 9.43864 9.24138 9.43412 2.92299 9.43864C0.882905 9.44316 0.0137319 10.3242 0.0137319 12.3394V47.3333C0.0137319 52.8366 0.0452564 58.3443 0.000221463 63.8476C-0.0267995 67.4893 2.4231 69.8523 4.9991 70.6385C5.92682 70.9232 6.88156 71 7.84981 71C29.3044 70.9955 50.7591 71 72.2182 71C72.5019 71 72.7901 71.0135 73.0784 70.991C75.4877 70.8238 77.4783 69.8704 78.9194 67.8553C79.6444 66.8387 79.8966 65.6955 80.0002 64.4892V11.5577C79.6039 9.93113 79.023 9.46575 77.3387 9.43412ZM28.3272 9.05911C28.3812 8.48981 28.3272 7.91147 28.3452 7.34217C28.3902 6.00024 29.3269 4.99719 30.6555 4.98815C36.9153 4.97008 43.1752 4.97008 49.4395 4.98815C50.7636 4.98815 51.7093 6.00024 51.7453 7.34669C51.7633 8.09672 51.993 9.05459 51.6282 9.53805C51.286 9.98987 50.2727 9.66908 49.5521 9.67359C46.3546 9.68715 43.1617 9.67811 39.9642 9.67811C36.3029 9.67811 32.637 9.66908 28.9757 9.68715C28.4893 9.68715 28.2776 9.59678 28.3272 9.05911ZM74.3934 14.3861C74.0961 15.2943 73.8169 16.1663 73.5287 17.0384C71.4706 23.2329 69.4125 29.4274 67.3544 35.622C66.76 37.4067 66.143 37.863 64.283 37.863C60.329 37.863 56.3749 37.854 52.4208 37.8766C51.8849 37.8766 51.6733 37.7682 51.7408 37.2034C51.7904 36.7651 51.7543 36.3178 51.7498 35.875C51.7408 34.0903 50.8356 33.1686 49.0703 33.1686C43.9183 33.1686 38.7663 33.1686 33.6188 33.1686C32.682 33.1686 31.7453 33.155 30.8086 33.1686C29.336 33.1912 28.3767 34.149 28.3407 35.6175C28.3272 36.1913 28.3182 36.7651 28.3407 37.3389C28.3587 37.723 28.2776 37.8766 27.8408 37.8766C23.6526 37.8585 19.4643 37.8766 15.2761 37.8585C14.0061 37.854 13.2945 37.2666 12.8532 35.9383C11.0383 30.5118 9.23238 25.0809 7.42648 19.6544C6.85453 17.9285 6.28259 16.2025 5.68363 14.3907H74.3889L74.3934 14.3861ZM33.0153 38.3329C33.0063 37.9579 33.1189 37.854 33.4927 37.854C37.8611 37.8676 42.2295 37.8676 46.5978 37.854C46.9716 37.854 47.0842 37.9534 47.0752 38.3329C47.0527 39.5574 47.0482 40.7864 47.0752 42.0108C47.0887 42.4536 46.9581 42.5756 46.5168 42.5711C44.3596 42.5485 42.2024 42.562 40.0408 42.562C37.8791 42.562 35.7759 42.544 33.6458 42.5756C33.1369 42.5846 32.9883 42.4536 33.0063 41.9385C33.0468 40.7367 33.0333 39.5348 33.0063 38.3375L33.0153 38.3329ZM75.3211 63.1518C75.3211 65.1985 74.4744 66.048 72.4389 66.048H7.67867C5.59806 66.048 4.76942 65.2121 4.76942 63.0975V26.9017C4.80995 26.8972 4.85048 26.8882 4.89101 26.8837C5.73316 29.4094 6.57081 31.9396 7.41747 34.4653C7.77325 35.5271 8.1065 36.5934 8.4893 37.6416C9.62418 40.7999 12.0876 42.5485 15.4202 42.5575C19.4508 42.5711 23.4814 42.5801 27.512 42.544C28.1786 42.5394 28.4578 42.675 28.3497 43.3798C28.2911 43.7639 28.3362 44.1615 28.3407 44.5501C28.3497 46.3348 29.2504 47.2565 31.0203 47.2565C36.5325 47.2565 42.0448 47.2565 47.5616 47.2565C48.111 47.2565 48.6559 47.261 49.2009 47.2565C50.7771 47.2384 51.7228 46.2986 51.7543 44.7353C51.7678 44.035 51.5156 43.0907 51.8714 42.7021C52.2857 42.2548 53.2405 42.5666 53.9565 42.5666C57.4648 42.553 60.9775 42.5666 64.4902 42.5575C68.111 42.5575 70.5834 40.7547 71.7318 37.2983C72.8847 33.8282 74.0376 30.3582 75.3211 26.8927V63.1518Z" fill="#06C279"/>
</g>
<defs>
<clipPath id="clip0_106_452">
<rect width="80" height="71" fill="white"/>
</clipPath>
</defs>
</svg>
