<svg width="63" height="86" viewBox="0 0 63 86" fill="none" xmlns="http://www.w3.org/2000/svg">
<g clip-path="url(#clip0_106_435)">
<path d="M51.862 23.7769C51.5306 22.6461 50.6339 22.2141 49.5301 22.0588C46.1675 21.5856 42.8098 21.0687 39.4423 20.627C38.8454 20.5494 38.5481 20.3261 38.2995 19.8141C36.7937 16.7225 35.2537 13.6478 33.7357 10.5611C33.4603 10.0005 33.1192 9.52244 32.5466 9.23851C31.3136 8.62213 30.0076 9.11475 29.3156 10.498C27.7658 13.6042 26.2356 16.7176 24.6956 19.8262C24.5105 20.1999 24.3716 20.5275 23.8233 20.6003C20.3949 21.0541 16.9787 21.5735 13.5528 22.0491C12.4611 22.202 11.5401 22.5805 11.1746 23.709C10.8115 24.8252 11.2818 25.6746 12.0932 26.4487C14.5274 28.7711 16.9178 31.1371 19.352 33.4595C19.7711 33.8599 19.9393 34.2311 19.8247 34.8014C19.5811 35.9832 19.3861 37.1772 19.1815 38.3663C18.7721 40.7469 18.3701 43.1299 17.9948 45.3236C17.9266 47.447 19.7297 48.5584 21.5182 47.6435C24.6128 46.0565 27.6927 44.4403 30.7605 42.8023C31.3063 42.5111 31.7181 42.5062 32.2615 42.7974C35.222 44.3821 38.2143 45.9085 41.1724 47.4955C42.1617 48.0245 43.1144 48.2211 44.0744 47.5392C45.0832 46.8233 45.1246 45.7993 44.9248 44.6878C44.3327 41.3899 43.7772 38.0823 43.1899 34.7844C43.0973 34.2603 43.2094 33.8914 43.609 33.5104C46.0628 31.1662 48.4775 28.7808 50.9337 26.4366C51.7207 25.6867 52.1812 24.8544 51.862 23.7769ZM43.8527 26.8127C42.3006 28.3464 40.7386 29.8704 39.167 31.3846C38.4311 32.0932 38.1631 32.8965 38.3556 33.923C38.7723 36.1482 39.1207 38.3881 39.4911 40.6231C39.5252 40.8245 39.5179 41.0356 39.5349 41.3487C37.3785 40.2057 35.2756 39.1452 33.2264 37.9901C32.0495 37.3252 31.0017 37.3034 29.8126 37.9804C27.7683 39.1428 25.6606 40.2008 23.4164 41.3875C23.7258 39.5505 24.0061 37.8712 24.2912 36.1895C24.4276 35.3863 24.5811 34.5854 24.72 33.7822C24.8833 32.8406 24.5543 32.0859 23.8842 31.4137C22.1323 29.6568 20.4095 27.8732 18.6283 26.0532C20.2438 25.8105 21.8983 25.563 23.5528 25.3154C24.3618 25.1965 25.1708 25.0436 25.9846 24.9708C27.0714 24.8689 27.7512 24.2889 28.2069 23.3449C29.2668 21.1488 30.3438 18.9599 31.416 16.771C31.7595 16.8341 31.7668 17.1229 31.8643 17.317C32.8804 19.3385 33.8965 21.3623 34.8833 23.3983C35.3317 24.3181 36.0066 24.8301 37.0422 24.9684C39.5081 25.296 41.9643 25.6794 44.4375 26.0434C44.4205 26.4511 44.0744 26.5943 43.8527 26.8127Z" fill="#06C279"/>
<path d="M62.5078 25.9801C59.4376 7.40369 40.1172 -4.26148 22.0883 1.46311C-0.955207 8.77963 -7.60487 37.7666 9.98542 54.2634C10.3729 54.6274 10.5312 54.9792 10.5288 55.5083C10.5069 60.1675 10.5166 64.8268 10.5166 69.4885C10.5166 74.1502 10.5093 78.8677 10.5215 83.5585C10.5264 85.2063 11.7569 86.2303 13.3237 85.9513C13.7866 85.8688 14.1619 85.6115 14.5444 85.3737C19.9782 82.0079 25.412 78.6469 30.8311 75.2616C31.3379 74.9437 31.6815 74.9389 32.1908 75.2592C37.6075 78.6469 43.0412 82.0079 48.4726 85.3761C48.8576 85.614 49.2328 85.8712 49.6958 85.9537C51.3137 86.2401 52.4931 85.1674 52.4955 83.3644C52.5004 74.1065 52.5004 64.8462 52.4882 55.5883C52.4882 55.0423 52.6198 54.6541 53.034 54.2536C61.0433 46.4469 64.3328 37.0071 62.5078 25.9801ZM47.8074 79.3288C47.4492 79.438 47.2323 79.1128 46.9764 78.9527C42.3955 76.1134 37.8121 73.279 33.2605 70.3961C32.0299 69.6171 30.97 69.6317 29.7346 70.4155C25.2146 73.2912 20.6507 76.1013 16.0966 78.926C15.8285 79.0934 15.5946 79.3555 15.1585 79.3579V78.9187C15.1585 72.2938 15.1633 65.6689 15.1512 59.0464C15.1487 58.4518 15.156 58.214 15.8529 58.5877C26.2892 64.225 36.7425 64.2104 47.1909 58.5999C47.3493 58.5149 47.5125 58.4397 47.6758 58.3669C47.6977 58.3572 47.7318 58.379 47.8074 58.4033V79.3288ZM31.433 58.1412C16.6741 58.1339 4.67836 46.1218 4.68324 31.3528C4.68811 16.6227 16.7057 4.67364 31.5256 4.66151C46.2625 4.64938 58.3045 16.6179 58.3289 31.3019C58.3557 46.1242 46.3064 58.1461 31.433 58.1412Z" fill="#06C279"/>
<path d="M51.862 23.7769C51.5306 22.6461 50.6339 22.2141 49.5301 22.0588C46.1675 21.5856 42.8098 21.0687 39.4423 20.627C38.8454 20.5494 38.5481 20.3261 38.2995 19.8141C36.7937 16.7225 35.2537 13.6478 33.7357 10.5611C33.4603 10.0005 33.1192 9.52244 32.5466 9.23851C31.3136 8.62213 30.0076 9.11475 29.3156 10.498C27.7658 13.6042 26.2356 16.7176 24.6956 19.8262C24.5105 20.1999 24.3716 20.5275 23.8233 20.6003C20.3949 21.0541 16.9787 21.5735 13.5528 22.0491C12.4611 22.202 11.5401 22.5805 11.1746 23.709C10.8115 24.8252 11.2818 25.6746 12.0932 26.4487C14.5274 28.7711 16.9178 31.1371 19.352 33.4595C19.7711 33.8599 19.9393 34.2311 19.8247 34.8014C19.5811 35.9832 19.3861 37.1772 19.1815 38.3663C18.7721 40.7469 18.3701 43.1299 17.9948 45.3236C17.9266 47.447 19.7297 48.5584 21.5182 47.6435C24.6128 46.0565 27.6927 44.4403 30.7605 42.8023C31.3063 42.5111 31.7181 42.5062 32.2615 42.7974C35.222 44.3821 38.2143 45.9085 41.1724 47.4955C42.1617 48.0245 43.1144 48.2211 44.0744 47.5392C45.0832 46.8233 45.1246 45.7993 44.9248 44.6878C44.3327 41.3899 43.7772 38.0823 43.1899 34.7844C43.0973 34.2603 43.2094 33.8914 43.609 33.5104C46.0628 31.1662 48.4775 28.7808 50.9337 26.4366C51.7207 25.6867 52.1812 24.8544 51.862 23.7769ZM43.8527 26.8127C42.3006 28.3464 40.7386 29.8704 39.167 31.3846C38.4311 32.0932 38.1631 32.8965 38.3556 33.923C38.7723 36.1482 39.1207 38.3881 39.4911 40.6231C39.5252 40.8245 39.5179 41.0356 39.5349 41.3487C37.3785 40.2057 35.2756 39.1452 33.2264 37.9901C32.0495 37.3252 31.0017 37.3034 29.8126 37.9804C27.7683 39.1428 25.6606 40.2008 23.4164 41.3875C23.7258 39.5505 24.0061 37.8712 24.2912 36.1895C24.4276 35.3863 24.5811 34.5854 24.72 33.7822C24.8833 32.8406 24.5543 32.0859 23.8842 31.4137C22.1323 29.6568 20.4095 27.8732 18.6283 26.0532C20.2438 25.8105 21.8983 25.563 23.5528 25.3154C24.3618 25.1965 25.1708 25.0436 25.9846 24.9708C27.0714 24.8689 27.7512 24.2889 28.2069 23.3449C29.2668 21.1488 30.3438 18.9599 31.416 16.771C31.7595 16.8341 31.7668 17.1229 31.8643 17.317C32.8804 19.3385 33.8965 21.3623 34.8833 23.3983C35.3317 24.3181 36.0066 24.8301 37.0422 24.9684C39.5081 25.296 41.9643 25.6794 44.4375 26.0434C44.4205 26.4511 44.0744 26.5943 43.8527 26.8127Z" fill="#FEFEFE"/>
<path d="M51.862 23.7769C51.5306 22.6461 50.6339 22.2141 49.5301 22.0588C46.1675 21.5856 42.8098 21.0687 39.4423 20.627C38.8454 20.5494 38.5481 20.3261 38.2995 19.8141C36.7937 16.7225 35.2537 13.6478 33.7357 10.5611C33.4603 10.0005 33.1192 9.52244 32.5466 9.23851C31.3136 8.62213 30.0076 9.11475 29.3156 10.498C27.7658 13.6042 26.2356 16.7176 24.6956 19.8262C24.5105 20.1999 24.3716 20.5275 23.8233 20.6003C20.3949 21.0541 16.9787 21.5735 13.5528 22.0491C12.4611 22.202 11.5401 22.5805 11.1746 23.709C10.8115 24.8252 11.2818 25.6746 12.0932 26.4487C14.5274 28.7711 16.9178 31.1371 19.352 33.4595C19.7711 33.8599 19.9393 34.2311 19.8247 34.8014C19.5811 35.9832 19.3861 37.1772 19.1815 38.3663C18.7721 40.7469 18.3701 43.1299 17.9948 45.3236C17.9266 47.447 19.7297 48.5584 21.5182 47.6435C24.6128 46.0565 27.6927 44.4403 30.7605 42.8023C31.3063 42.5111 31.7181 42.5062 32.2615 42.7974C35.222 44.3821 38.2143 45.9085 41.1724 47.4955C42.1617 48.0245 43.1144 48.2211 44.0744 47.5392C45.0832 46.8233 45.1246 45.7993 44.9248 44.6878C44.3327 41.3899 43.7772 38.0823 43.1899 34.7844C43.0973 34.2603 43.2094 33.8914 43.609 33.5104C46.0628 31.1662 48.4775 28.7808 50.9337 26.4366C51.7207 25.6867 52.1812 24.8544 51.862 23.7769ZM43.8527 26.8127C42.3006 28.3464 40.7386 29.8704 39.167 31.3846C38.4311 32.0932 38.1631 32.8965 38.3556 33.923C38.7723 36.1482 39.1207 38.3881 39.4911 40.6231C39.5252 40.8245 39.5179 41.0356 39.5349 41.3487C37.3785 40.2057 35.2756 39.1452 33.2264 37.9901C32.0495 37.3252 31.0017 37.3034 29.8126 37.9804C27.7683 39.1428 25.6606 40.2008 23.4164 41.3875C23.7258 39.5505 24.0061 37.8712 24.2912 36.1895C24.4276 35.3863 24.5811 34.5854 24.72 33.7822C24.8833 32.8406 24.5543 32.0859 23.8842 31.4137C22.1323 29.6568 20.4095 27.8732 18.6283 26.0532C20.2438 25.8105 21.8983 25.563 23.5528 25.3154C24.3618 25.1965 25.1708 25.0436 25.9846 24.9708C27.0714 24.8689 27.7512 24.2889 28.2069 23.3449C29.2668 21.1488 30.3438 18.9599 31.416 16.771C31.7595 16.8341 31.7668 17.1229 31.8643 17.317C32.8804 19.3385 33.8965 21.3623 34.8833 23.3983C35.3317 24.3181 36.0066 24.8301 37.0422 24.9684C39.5081 25.296 41.9643 25.6794 44.4375 26.0434C44.4205 26.4511 44.0744 26.5943 43.8527 26.8127Z" fill="#06C279"/>
</g>
<defs>
<clipPath id="clip0_106_435">
<rect width="63" height="86" fill="white"/>
</clipPath>
</defs>
</svg>
