<svg width="81" height="81" viewBox="0 0 81 81" fill="none" xmlns="http://www.w3.org/2000/svg">
<g clip-path="url(#clip0_106_444)">
<path d="M80.7239 54.7941C79.9809 52.5276 77.9382 51.1158 75.3789 51.1111C72.848 51.104 70.3194 51.0851 67.7908 51.1276C67.2011 51.1371 66.9912 50.9199 66.8284 50.4052C66.0901 48.0537 65.3188 45.7141 64.5522 43.3721C63.7007 40.768 61.8019 39.2712 59.3511 39.2665C56.872 39.2618 54.9567 40.7822 54.0981 43.4311C53.341 45.7755 52.5602 48.1128 51.829 50.4666C51.6686 50.9813 51.4351 51.1371 50.9091 51.1229C49.5882 51.0828 48.2626 51.1087 46.9393 51.1087C46.4982 51.1087 46.0571 51.0946 45.616 51.1087C44.4154 51.156 43.203 50.9742 42.0118 51.2339C39.8253 51.7108 38.41 53.0423 37.8675 55.2025C37.3226 57.3793 37.9665 59.2609 39.7191 60.6302C41.8255 62.2758 44.0168 63.8127 46.1939 65.3638C46.6751 65.7062 46.7954 65.9989 46.5949 66.5821C45.7953 68.9123 45.0594 71.2637 44.2998 73.6081C44.0262 74.4533 43.8163 75.3056 43.9413 76.2051C44.5239 80.4051 48.9796 82.3717 52.4612 79.9353C54.5817 78.455 56.6621 76.9181 58.7355 75.374C59.1789 75.0435 59.4596 75.0034 59.9267 75.3552C61.9245 76.8543 63.9578 78.3063 65.9816 79.7677C68.1257 81.3188 70.5694 81.4038 72.5319 79.999C74.5156 78.5778 75.2162 76.2051 74.3906 73.6317C73.6382 71.285 72.8881 68.9359 72.0932 66.6057C71.8997 66.0414 71.9611 65.7416 72.4729 65.3827C74.5416 63.9308 76.5772 62.434 78.6104 60.9324C80.6838 59.3979 81.4716 57.07 80.7239 54.7917V54.7941ZM74.0439 57.273C71.7417 58.954 69.4325 60.6255 67.1327 62.3065C65.7976 63.2815 65.4414 64.351 65.9439 65.921C66.7859 68.5463 67.6493 71.1646 68.5008 73.7852C68.5975 74.0826 68.6753 74.3848 68.8121 74.8499C66.3614 73.0651 64.0616 71.3888 61.7594 69.7126C59.7639 68.263 58.9218 68.2654 56.957 69.6984C54.6336 71.3936 52.3055 73.0816 49.8311 74.8806C50.7864 71.9295 51.6851 69.146 52.5885 66.3649C53.2796 64.2377 52.999 63.35 51.2181 62.0562C48.8664 60.3469 46.5147 58.6353 43.9413 56.7631C47.1728 56.7631 50.1331 56.7631 53.0957 56.7631C55.0817 56.7631 55.9097 56.1681 56.523 54.2794C57.4382 51.4652 58.3439 48.6463 59.2638 45.8038C59.6294 46.0352 59.6106 46.4224 59.712 46.7269C60.5541 49.2578 61.3702 51.8005 62.1958 54.3361C62.7949 56.1776 63.6063 56.7631 65.5665 56.7631C68.5291 56.7631 71.494 56.7631 74.4991 56.7631C74.4496 57.0724 74.2137 57.1503 74.0439 57.273Z" fill="#06C279"/>
<path d="M38.6792 2.29606e-05C27.2321 -0.0424732 17.9197 9.25946 17.9268 20.7287C17.9315 32.1554 27.1943 41.4149 38.6273 41.422C50.0484 41.429 59.3255 32.1696 59.3538 20.7358C59.3797 9.32793 50.1239 0.0425191 38.6792 2.29606e-05ZM38.5565 35.77C30.2112 35.7157 23.5406 28.9682 23.5736 20.613C23.6067 12.3357 30.3716 5.6284 38.665 5.65201C46.9938 5.67798 53.7517 12.4656 53.7045 20.7641C53.6573 29.0957 46.8688 35.8219 38.5565 35.77Z" fill="#06C279"/>
<path d="M22.3283 77.2721C17.1815 77.2721 12.0323 77.2745 6.88545 77.2721C2.70336 77.2697 0.0521044 74.6326 0.0615395 70.4468C0.066257 68.1827 -0.146032 65.8997 0.188913 63.6544C0.776245 59.6929 3.03358 56.6898 6.00563 54.1755C9.90938 50.8749 14.4925 48.8634 19.3303 47.4044C25.5905 45.5133 32.011 44.6846 38.5448 44.7083C40.0072 44.713 41.1701 45.6526 41.3965 46.97C41.6301 48.3251 40.9342 49.6166 39.6982 50.1265C39.1109 50.3673 38.4929 50.365 37.8773 50.3673C32.4733 50.3862 27.152 51.0543 21.9438 52.5134C17.5023 53.7576 13.2895 55.4999 9.68058 58.4605C7.88085 59.9384 6.38775 61.6524 5.84759 64.0133C5.62115 65.0025 5.71786 66.0059 5.70607 67.0046C5.69191 68.211 5.71786 69.4198 5.69663 70.6262C5.68484 71.3368 5.99383 71.665 6.70382 71.6201C6.90904 71.6083 7.11661 71.6201 7.32182 71.6201C17.6178 71.6201 27.9115 71.6201 38.2075 71.6201C39.8586 71.6201 41.0451 72.4275 41.373 73.7544C41.8117 75.5321 40.5191 77.2343 38.6533 77.2627C36.3606 77.2957 34.0655 77.2721 31.7704 77.2721C28.6238 77.2721 25.4749 77.2721 22.3283 77.2721Z" fill="#06C279"/>
</g>
<defs>
<clipPath id="clip0_106_444">
<rect width="81" height="81" fill="white"/>
</clipPath>
</defs>
</svg>
