<svg width="73" height="73" viewBox="0 0 73 73" fill="none" xmlns="http://www.w3.org/2000/svg">
<g clip-path="url(#clip0_106_420)">
<path d="M20.5425 27.3343C20.5733 24.797 22.6143 22.8102 25.1608 22.8292C27.6408 22.8482 29.6675 24.8966 29.6627 27.3818C29.6627 29.9002 27.6099 31.9296 25.0777 31.9225C22.5526 31.9154 20.5116 29.8503 20.5449 27.3343H20.5425Z" fill="white"/>
<path d="M43.3394 27.3414C43.3583 24.8302 45.4207 22.8102 47.9576 22.8316C50.4448 22.8506 52.462 24.8847 52.462 27.377C52.462 29.9025 50.4186 31.9343 47.8864 31.9248C45.3613 31.9177 43.3227 29.8598 43.3417 27.3414H43.3394Z" fill="white"/>
<path d="M56.6911 44.5121C54.7926 47.7947 52.0444 50.1873 48.7219 51.9462C44.9034 53.9685 40.7811 54.7138 36.4097 54.7565C30.8801 54.6948 25.6424 53.4036 21.1048 49.9096C19.2252 48.4617 17.6209 46.7622 16.4177 44.7091C15.6441 43.3822 15.9431 42.0435 17.1321 41.3718C18.3021 40.7072 19.548 41.1273 20.3383 42.3948C22.6047 46.0098 25.9272 48.2054 29.9783 49.2972C35.3916 50.757 40.7431 50.5624 45.9073 48.2362C48.7883 46.9355 51.1259 44.9725 52.7682 42.2287C53.4446 41.0988 54.7641 40.7594 55.8558 41.3742C56.9712 42.0032 57.3627 43.349 56.6888 44.5144L56.6911 44.5121Z" fill="white"/>
<path d="M36.4715 0C16.4179 0 -0.00948874 16.4372 4.11214e-06 36.4917C0.00949696 56.5771 16.4036 72.9953 36.4549 73C56.5797 73.0071 72.9953 56.6127 73.0024 36.5059C73.0071 16.4039 56.5916 0 36.4715 0ZM36.4953 68.4261C18.8931 68.4213 4.55894 54.0729 4.57793 36.4751C4.59692 18.8654 18.9406 4.54781 36.5427 4.5763C54.152 4.60241 68.4695 18.965 68.4245 36.5582C68.3794 54.1489 54.0713 68.4308 36.4953 68.4261Z" fill="white"/>
<path d="M20.5425 27.3343C20.5733 24.797 22.6143 22.8102 25.1608 22.8292C27.6408 22.8482 29.6675 24.8966 29.6627 27.3818C29.6627 29.9002 27.6099 31.9296 25.0777 31.9225C22.5526 31.9154 20.5116 29.8503 20.5449 27.3343H20.5425Z" fill="#FEFEFE"/>
<path d="M43.3394 27.3414C43.3583 24.8302 45.4207 22.8102 47.9576 22.8316C50.4448 22.8506 52.462 24.8847 52.462 27.377C52.462 29.9025 50.4186 31.9343 47.8864 31.9248C45.3613 31.9177 43.3227 29.8598 43.3417 27.3414H43.3394Z" fill="#FEFEFE"/>
<path d="M56.6911 44.5121C54.7926 47.7947 52.0444 50.1873 48.7219 51.9462C44.9034 53.9685 40.7811 54.7138 36.4097 54.7565C30.8801 54.6948 25.6424 53.4036 21.1048 49.9096C19.2252 48.4617 17.6209 46.7622 16.4177 44.7091C15.6441 43.3822 15.9431 42.0435 17.1321 41.3718C18.3021 40.7072 19.548 41.1273 20.3383 42.3948C22.6047 46.0098 25.9272 48.2054 29.9783 49.2972C35.3916 50.757 40.7431 50.5624 45.9073 48.2362C48.7883 46.9355 51.1259 44.9725 52.7682 42.2287C53.4446 41.0988 54.7641 40.7594 55.8558 41.3742C56.9712 42.0032 57.3627 43.349 56.6888 44.5144L56.6911 44.5121Z" fill="#FEFEFE"/>
<path d="M56.6911 44.5121C54.7926 47.7947 52.0444 50.1873 48.7219 51.9462C44.9034 53.9685 40.7811 54.7138 36.4097 54.7565C30.8801 54.6948 25.6424 53.4036 21.1048 49.9096C19.2252 48.4617 17.6209 46.7622 16.4177 44.7091C15.6441 43.3822 15.9431 42.0435 17.1321 41.3718C18.3021 40.7072 19.548 41.1273 20.3383 42.3948C22.6047 46.0098 25.9272 48.2054 29.9783 49.2972C35.3916 50.757 40.7431 50.5624 45.9073 48.2362C48.7883 46.9355 51.1259 44.9725 52.7682 42.2287C53.4446 41.0988 54.7641 40.7594 55.8558 41.3742C56.9712 42.0032 57.3627 43.349 56.6888 44.5144L56.6911 44.5121Z" fill="white"/>
<path d="M29.6627 27.3818C29.6627 29.9002 27.6099 31.9296 25.0777 31.9225C22.5526 31.9154 20.5116 29.8503 20.5448 27.3343C20.5757 24.797 22.6166 22.8102 25.1631 22.8292C27.6431 22.8482 29.6698 24.8966 29.6651 27.3818H29.6627Z" fill="white"/>
<path d="M52.4597 27.3747C52.4597 29.9002 50.4164 31.932 47.8842 31.9225C45.3591 31.9154 43.3205 29.8575 43.3395 27.3391C43.3585 24.8278 45.4208 22.8079 47.9578 22.8293C50.4449 22.8483 52.4621 24.8824 52.4621 27.3747H52.4597Z" fill="white"/>
</g>
<defs>
<clipPath id="clip0_106_420">
<rect width="73" height="73" fill="white"/>
</clipPath>
</defs>
</svg>
