<svg width="74" height="74" viewBox="0 0 74 74" fill="none" xmlns="http://www.w3.org/2000/svg">
<g clip-path="url(#clip0_106_508)">
<path d="M22.4247 73.8699C20.7085 73.6012 19.4045 72.6946 18.3949 71.3137C18.1678 71.0031 18.1846 70.8142 18.5506 70.6715C18.6389 70.6379 18.7188 70.5749 18.803 70.5287C19.2404 70.2769 19.6569 69.8991 20.128 69.8152C20.6454 69.7228 20.7632 70.407 21.1376 70.684C21.9115 71.2549 22.757 71.5361 23.6909 71.5361C32.6464 71.5445 41.602 71.5487 50.5533 71.5361C52.6818 71.5361 54.1751 70.1594 54.3391 68.0565C54.4317 66.8812 54.3728 65.6976 54.3938 64.5181C54.398 64.2327 54.2886 64.1235 54.011 64.1445C53.8428 64.1571 53.6745 64.1445 53.5062 64.1445C46.6287 64.1445 39.7469 64.1361 32.8694 64.1613C32.2468 64.1613 32.0743 63.9934 32.1374 63.4016C32.1963 62.8559 31.9692 62.1214 32.2468 61.8024C32.5749 61.4288 33.3321 61.6848 33.8999 61.6848C40.441 61.6765 46.982 61.6639 53.5231 61.7016C54.2971 61.7058 54.4401 61.475 54.4064 60.7782C54.3517 59.6239 54.4064 58.4654 54.3812 57.3112C54.3728 56.8872 54.4695 56.7361 54.9322 56.7277C56.8672 56.7025 56.8672 56.6858 56.8672 58.6082C56.8672 61.5463 56.8756 64.4845 56.8672 67.4227C56.8588 70.1048 55.7525 72.1447 53.317 73.3956C52.7154 73.7062 52.0382 73.7733 51.4156 74.0042H23.1693C22.9463 73.8279 22.6561 74.0168 22.4247 73.8741V73.8699Z" fill="white"/>
<path d="M22.4248 73.8699C22.6856 73.8363 22.9506 73.7943 23.1693 74H22.4458C22.4627 73.9538 22.4585 73.9077 22.4248 73.8699Z" fill="white"/>
<path d="M50.5365 0C41.5851 0 32.6296 0 23.6782 0C22.6813 0 21.7096 0.172093 20.8136 0.633806C18.4076 1.87623 17.3139 3.89518 17.3139 6.55632C17.3139 9.90164 17.3055 13.2512 17.3223 16.5965C17.3223 17.0498 17.234 17.3016 16.767 17.5241C11.8413 19.8998 8.83786 23.7908 7.70632 29.1299C7.58854 29.6798 7.77363 30.4605 7.34877 30.7333C6.93654 30.9977 6.22986 30.813 5.64937 30.8172C3.62606 30.8172 3.64289 30.8172 3.7144 32.8278C3.73122 33.2307 3.87424 33.3021 4.22338 33.2937C5.09411 33.2727 5.96064 33.3189 6.83138 33.2769C7.34457 33.2517 7.50441 33.3902 7.57172 33.9275C8.45087 41.0127 13.5743 46.4777 20.5318 47.8209C21.0913 47.9258 21.8905 47.7453 22.1555 48.1567C22.4331 48.5848 22.2607 49.3151 22.2607 49.9154C22.2649 51.8797 22.2607 51.863 24.2335 51.8042C24.671 51.7916 24.7509 51.6321 24.7383 51.2459C24.713 50.3561 24.7509 49.4621 24.7214 48.5722C24.7046 48.1441 24.8266 48.0098 25.2725 47.9636C32.3057 47.208 37.9213 41.9865 39.259 35.023C39.3641 34.4606 39.158 33.6631 39.5997 33.3902C40.0414 33.1174 40.7649 33.2937 41.3664 33.2895C43.3476 33.2853 43.3308 33.2895 43.2761 31.3251C43.2635 30.897 43.1163 30.8005 42.7251 30.813C41.8586 30.8382 40.9878 30.7837 40.1213 30.834C39.5744 30.8676 39.4188 30.6619 39.3852 30.1541C39.301 28.9242 39.0066 27.728 38.5481 26.5863C36.1378 20.5798 31.7294 17.0834 25.2935 16.1851C24.814 16.118 24.7088 15.9375 24.7257 15.501C24.7551 14.6111 24.7257 13.7213 24.7383 12.8272C24.7467 12.4788 24.6752 12.29 24.2671 12.3109C23.7371 12.3403 23.2071 12.3319 22.6771 12.3109C22.3616 12.2984 22.248 12.4159 22.2565 12.7265C22.2733 13.3771 22.2607 14.0277 22.2607 14.6783C22.2607 15.5625 21.8386 16.0816 20.9945 16.2355C20.78 16.2733 20.5528 16.2817 20.3593 16.3614C19.8083 16.5881 19.7789 16.2985 19.7831 15.8661C19.7999 14.1074 19.8167 12.3487 19.7747 10.5942C19.762 9.99818 19.9219 9.83868 20.5276 9.84288C26.2736 9.86807 32.0154 9.85967 37.7615 9.85547C38.3335 9.85547 39.0865 10.036 39.4314 9.74634C39.7974 9.43993 39.4861 8.65922 39.5534 8.09257C39.6165 7.54691 39.4525 7.37062 38.8636 7.37062C33.7695 7.3958 28.6797 7.38321 23.5857 7.38321H20.2542C20.0144 7.38321 19.8209 7.42518 19.7789 7.04742C19.4844 4.36109 21.1586 2.45967 23.8844 2.45967C32.6674 2.45967 41.4547 2.45967 50.2378 2.45547C51.1759 2.45547 52.0634 2.59818 52.8332 3.17742C53.0435 3.33693 53.1823 3.35791 53.3716 3.13545C53.8133 2.59818 54.2844 2.08191 54.7471 1.55303C53.5104 0.486897 52.1097 0 50.5365 0ZM28.6377 44.6351C27.5187 45.0086 26.3956 45.3528 25.222 45.5165C24.8603 45.5669 24.692 45.4955 24.7257 45.0842C24.7593 44.6309 24.7004 44.1691 24.7425 43.7158C24.7845 43.2499 24.5953 43.1324 24.1662 43.166C23.7119 43.1995 23.245 43.2079 22.7949 43.166C22.3153 43.1156 22.2186 43.3255 22.2565 43.741C22.2859 44.0768 22.227 44.421 22.2691 44.7484C22.3658 45.4326 22.1219 45.613 21.4446 45.4829C20.2584 45.2521 19.11 44.9331 17.9911 44.4756C17.4779 44.2657 17.2087 44.0012 17.3013 43.4178C17.3559 43.0904 17.3097 42.7462 17.3097 42.4062C17.3223 39.0651 19.0133 36.7733 22.0756 35.9507C25.4365 35.044 29.1635 37.5708 29.5673 41.0085C29.643 41.6801 29.6009 42.3601 29.6935 43.0191C29.8155 43.9173 29.4621 44.358 28.6377 44.6351ZM19.7999 29.4951C19.8588 27.4761 21.5666 25.8307 23.5478 25.8895C25.5711 25.9483 27.2201 27.6398 27.1948 29.6252C27.1696 31.6945 25.4281 33.3441 23.3459 33.2685C21.3058 33.1972 19.741 31.5308 19.7957 29.4951H19.7999ZM21.4152 18.6574C22.0167 18.5735 22.3111 18.6154 22.2775 19.3668C22.2102 20.9534 22.2607 20.9114 23.8549 20.9744C24.591 21.0037 24.8729 20.7981 24.7341 20.0761C24.7257 20.0299 24.7341 19.9796 24.7341 19.9334C24.7341 18.9764 25.201 18.5902 26.1348 18.7749C31.6453 19.8704 35.9653 24.2945 36.8907 29.8057C36.9075 29.9022 36.8991 30.0029 36.9244 30.0911C37.0968 30.6955 36.8739 30.8466 36.2598 30.8298C34.6108 30.7837 34.6487 30.8172 34.594 32.4374C34.5688 33.109 34.7076 33.3315 35.4353 33.3063C37.1347 33.2433 37.1347 33.2853 36.7645 34.9265C36.0915 37.9066 34.6024 40.3999 32.1627 42.5028C32.1332 40.8238 31.8766 39.3254 31.1363 37.9402C30.3833 36.5257 29.3401 35.3882 27.9562 34.5781C27.5776 34.3556 27.4809 34.2507 27.8426 33.8813C29.7986 31.8876 30.2025 29.1719 28.9573 26.7038C27.83 24.475 25.2136 23.1108 22.6897 23.4424C20.0901 23.7866 17.9785 25.6922 17.4485 28.3324C17.0278 30.4143 17.5789 32.2863 19.068 33.8478C19.2531 34.045 19.6569 34.1961 19.1311 34.5151C16.3211 36.2067 14.9498 38.7335 14.8321 41.9781C14.8321 42.0956 14.8194 42.2132 14.811 42.3181C14.5671 42.4104 14.4745 42.2257 14.3651 42.125C11.9506 39.8794 10.5036 37.1301 10.0157 33.8687C9.95257 33.4532 9.99884 33.2014 10.4994 33.2853C10.5247 33.2895 10.5457 33.2853 10.5709 33.2853C12.5564 33.2601 12.548 33.2601 12.3629 31.216C12.3334 30.9012 12.2283 30.7921 11.9254 30.813C11.6856 30.8298 11.4459 30.813 11.2019 30.813C10.3494 30.813 9.99183 30.4031 10.1292 29.5832C11.0547 24.0804 15.8584 19.4381 21.4152 18.6532V18.6574Z" fill="white"/>
<path d="M73.121 25.9105C71.5731 24.3869 69.2595 24.2567 67.5222 25.7678C65.4653 27.5517 63.4293 29.365 61.385 31.1614C59.9254 32.4458 58.4657 33.726 56.8715 35.128V26.41C56.8715 24.6723 56.8715 24.6933 55.1006 24.6639C54.5495 24.6555 54.3771 24.7772 54.3813 25.3648C54.4107 29.025 54.3939 32.6851 54.3939 36.3494C54.3939 36.4921 54.335 36.6894 54.4065 36.7734C54.7094 37.1343 54.4233 37.2854 54.2046 37.4785C52.1392 39.296 50.0781 41.1051 48.0211 42.9309C47.7855 43.1408 47.5416 43.1996 47.2471 43.2415C43.8946 43.7116 41.5305 45.5039 40.1803 48.6016C39.4862 50.1924 39.5072 51.884 39.5493 53.5713C39.5829 54.9564 39.1034 56.0562 37.8835 56.7907C37.3241 57.1265 36.9497 57.584 37.139 58.2766C37.3493 59.0363 37.955 59.2168 38.6617 59.2168C41.3875 59.2168 44.1175 59.2546 46.8433 59.2042C51.4578 59.1245 54.844 56.1527 55.5338 51.6195C55.5927 51.225 55.7273 50.906 55.9965 50.6038C59.7403 46.3854 63.4756 42.1586 67.211 37.936C69.1586 35.7324 71.0472 33.4742 73.0748 31.3503C74.3493 30.0114 74.2526 27.0312 73.121 25.9189V25.9105ZM53.0646 51.4684C52.5472 54.6416 50.0823 56.6858 46.6624 56.7403C45.9137 56.7529 45.1691 56.7403 44.4204 56.7403C43.5538 56.7403 42.6873 56.7445 41.8166 56.7361C41.6357 56.7361 41.2739 56.8159 41.4674 56.4381C42.1825 55.0362 41.9764 53.5335 42.0185 52.0519C42.0479 50.9647 42.2246 49.907 42.763 48.9332C43.7726 47.1115 45.3163 46.0538 47.3649 45.7054C47.6383 45.6592 47.8066 45.7474 47.9917 45.9363C49.6027 47.5564 51.2222 49.1724 52.8501 50.78C53.0562 50.9857 53.1151 51.1662 53.0646 51.4726V51.4684ZM71.0346 29.8854C66.58 34.9223 62.1296 39.955 57.6749 44.9918C56.6864 46.1083 55.6895 47.2207 54.7178 48.3581C54.4444 48.6772 54.2887 48.7611 53.9522 48.4085C52.7828 47.1955 51.5798 46.0076 50.3683 44.8323C50.0696 44.5427 50.0781 44.3958 50.3935 44.1188C56.6443 38.6328 62.8783 33.1342 69.1207 27.6398C69.6086 27.2117 70.1513 27.006 70.7822 27.2663C71.3459 27.4971 71.6235 27.9588 71.6866 28.5339C71.6824 29.1005 71.3796 29.4993 71.0388 29.8854H71.0346Z" fill="white"/>
<path d="M46.9481 11.7947C46.9103 9.85549 46.9018 9.85969 48.8032 9.85969C49.6445 9.85969 50.4899 9.88067 51.3312 9.85129C51.7519 9.8387 51.9117 9.93944 51.9201 10.4011C51.9538 12.3319 51.9748 12.3319 50.0651 12.3319H49.4173C48.7653 12.3319 48.1175 12.3068 47.4655 12.3403C47.0364 12.3613 46.9523 12.1976 46.9481 11.8031V11.7947Z" fill="white"/>
<path d="M66.6514 17.1212C66.3107 17.5241 65.5241 17.2555 64.9352 17.2555C59.1934 17.2681 53.4558 17.2555 47.714 17.2723C47.1377 17.2723 46.9274 17.1589 46.94 16.5335C46.9821 14.7874 46.9484 14.7874 48.7151 14.7874H56.8925C59.9548 14.7874 63.0171 14.8 66.0794 14.7748C66.6094 14.7706 66.8197 14.884 66.7608 15.4422C66.7019 16.0131 66.9375 16.7728 66.6472 17.117L66.6514 17.1212Z" fill="white"/>
<path d="M66.6514 12.1892C66.3065 12.5922 65.5241 12.311 64.931 12.3194C63.4587 12.3403 61.9907 12.3236 60.5184 12.3236C58.6634 12.3236 56.8041 12.311 54.9491 12.3319C54.5242 12.3361 54.3728 12.2522 54.3728 11.7863C54.356 9.85549 54.3391 9.85549 56.2447 9.85549C59.5257 9.85549 62.8025 9.86808 66.0836 9.8429C66.6178 9.8429 66.8197 9.96042 66.7608 10.5145C66.7019 11.0811 66.9375 11.8409 66.6514 12.185V12.1892Z" fill="white"/>
<path d="M69.9576 4.92775C65.5913 4.92775 61.2208 4.92775 56.8545 4.92775C52.4882 4.92775 48.0714 4.92775 43.6798 4.92775C42.4684 4.92775 42.0141 5.37687 42.0141 6.57733C42.0099 11.2238 42.0141 15.8745 42.0141 20.5211C42.0141 21.7677 42.4558 22.2084 43.7135 22.2084C52.4713 22.2084 61.2334 22.2084 69.9912 22.2084C71.2616 22.2084 71.6864 21.7803 71.6864 20.5211C71.6864 15.8955 71.6864 11.2742 71.6864 6.64868C71.6864 5.3265 71.2826 4.92355 69.9576 4.92355V4.92775ZM69.2341 19.1275C69.2341 19.6564 69.0658 19.7529 68.5821 19.7487C64.6743 19.7319 60.7665 19.7403 56.8587 19.7403C52.9509 19.7403 49.0893 19.7278 45.2068 19.7529C44.6557 19.7529 44.4749 19.6396 44.4791 19.0478C44.5085 15.3876 44.5043 11.7275 44.4791 8.0674C44.4791 7.54692 44.5758 7.37483 45.1437 7.37483C52.9593 7.39582 60.7749 7.39162 68.5947 7.37483C69.091 7.37483 69.2425 7.48396 69.2383 8.00024C69.213 11.7065 69.213 15.417 69.2383 19.1233L69.2341 19.1275Z" fill="white"/>
<path d="M10.9999 62.7888C10.6887 63.0952 9.86 62.8811 9.26268 62.8895C8.82941 62.8979 8.39615 62.8895 7.96288 62.8895C7.12159 62.8895 6.27609 62.8769 5.4348 62.8937C5.08146 62.9021 4.94265 62.8266 4.92582 62.4278C4.85852 60.4215 4.8459 60.4257 6.85238 60.4257C8.1059 60.4257 9.35943 60.4382 10.613 60.4173C11.0042 60.4131 11.1892 60.497 11.1472 60.9251C11.0799 61.5631 11.4122 62.39 11.0042 62.7888H10.9999Z" fill="white"/>
<path d="M24.608 62.7804C24.2504 63.1414 23.4638 62.8811 22.8665 62.8811C19.9724 62.8937 17.0784 62.8727 14.1844 62.8979C13.7048 62.8979 13.5618 62.7678 13.5997 62.3019C13.6459 61.7058 13.402 60.9041 13.7048 60.56C14.0582 60.157 14.8784 60.4382 15.4968 60.4298C16.7503 60.4131 18.0038 60.4256 19.2616 60.4256C20.9021 60.4256 22.5426 60.4424 24.1831 60.413C24.629 60.4089 24.793 60.5222 24.7468 60.9755C24.6795 61.5925 25.0034 62.3858 24.6164 62.7804H24.608Z" fill="white"/>
<path d="M27.9814 55.5021C25.4491 55.5021 22.9126 55.4895 20.3803 55.5105C19.9218 55.5105 19.7619 55.4139 19.7746 54.9271C19.8124 53.6762 19.7872 52.4212 19.7872 51.1704C19.7872 49.29 19.7872 49.3067 17.9111 49.3109C17.4358 49.3109 17.2885 49.4327 17.297 49.9154C17.3264 51.5272 17.2801 53.1432 17.3222 54.755C17.339 55.3426 17.2086 55.5189 16.5861 55.5147C11.6393 55.4853 6.69247 55.4979 1.74568 55.4979C0.382788 55.5021 0 55.8883 0 57.2734C0 60.1654 0 63.0532 0 65.9452C0 67.4814 0.336517 67.8256 1.85084 67.8256H14.8067C19.1983 67.8256 23.5898 67.8256 27.9856 67.8256C29.2685 67.8256 29.6766 67.4185 29.6766 66.1467C29.6766 63.1623 29.6766 60.178 29.6766 57.1894C29.6766 55.9176 29.2559 55.5021 27.9814 55.5021ZM26.5596 65.366C22.6307 65.3492 18.6977 65.3576 14.7689 65.3576C10.84 65.3576 7.00375 65.345 3.12119 65.3702C2.57015 65.3744 2.44395 65.2233 2.45657 64.6944C2.49022 62.6503 2.48181 60.6061 2.45657 58.5578C2.45236 58.1045 2.54491 57.9492 3.04127 57.9492C10.9031 57.966 18.7608 57.966 26.6227 57.9492C27.1022 57.9492 27.22 58.0793 27.2158 58.5452C27.1905 60.6145 27.1821 62.6838 27.2158 64.7531C27.2242 65.2988 27.0181 65.3618 26.5512 65.3618L26.5596 65.366Z" fill="white"/>
<path d="M9.89367 10.3298C9.97779 12.3235 9.98621 12.3235 8.03441 12.3235H7.38241C6.73041 12.3235 6.08262 12.3068 5.43061 12.3277C5.07307 12.3403 4.93846 12.2564 4.92163 11.8576C4.85012 9.85129 4.8375 9.85548 6.8566 9.85548C7.69789 9.85548 8.54339 9.87227 9.38889 9.84709C9.75906 9.8345 9.87684 9.94363 9.89367 10.3256V10.3298Z" fill="white"/>
<path d="M14.832 6.59412C14.832 5.3307 14.4113 4.92355 13.1284 4.92355C9.3173 4.92355 5.50625 4.92355 1.69941 4.92355C0.424852 4.92775 0 5.35169 0 6.6151C0 9.59945 0 12.5838 0 15.5681C0 16.8483 0.40382 17.2555 1.67838 17.2597C3.5839 17.2639 5.48943 17.2597 7.39495 17.2597C9.30048 17.2597 11.2565 17.2639 13.183 17.2597C14.4324 17.2555 14.8278 16.8609 14.832 15.6143C14.8362 12.609 14.8362 9.59945 14.832 6.58992V6.59412ZM12.367 14.246C12.3712 14.7035 12.2366 14.8084 11.7991 14.8042C10.3269 14.779 8.85459 14.7916 7.38233 14.7916C5.91007 14.7916 4.53456 14.7748 3.11278 14.8042C2.63324 14.8168 2.44816 14.7203 2.45657 14.1872C2.49022 12.1179 2.48602 10.0444 2.45657 7.97506C2.45236 7.49655 2.59118 7.37903 3.0623 7.37903C5.95634 7.40001 8.85459 7.39582 11.7486 7.37903C12.1945 7.37903 12.3754 7.45878 12.3712 7.96246C12.3417 10.057 12.3417 12.1515 12.3712 14.246H12.367Z" fill="white"/>
<path d="M37.1135 66.6126C37.9239 66.6126 38.3292 67.0085 38.3292 67.8004C38.3292 68.6511 37.9057 69.0765 37.0588 69.0765C36.254 69.0765 35.8516 68.6791 35.8516 67.8844C35.8516 67.0365 36.2722 66.6126 37.1135 66.6126Z" fill="white"/>
<path d="M46.9481 11.7947C46.9103 9.85549 46.9018 9.85969 48.8032 9.85969C49.6445 9.85969 50.4899 9.88067 51.3312 9.85129C51.7519 9.8387 51.9117 9.93944 51.9201 10.4011C51.9538 12.3319 51.9748 12.3319 50.0651 12.3319H49.4173C48.7653 12.3319 48.1175 12.3068 47.4655 12.3403C47.0364 12.3613 46.9523 12.1976 46.9481 11.8031V11.7947Z" fill="#FEFEFE"/>
<path d="M66.6514 17.1212C66.3107 17.5241 65.5241 17.2555 64.9352 17.2555C59.1934 17.2681 53.4558 17.2555 47.714 17.2723C47.1377 17.2723 46.9274 17.1589 46.94 16.5335C46.9821 14.7874 46.9484 14.7874 48.7151 14.7874H56.8925C59.9548 14.7874 63.0171 14.8 66.0794 14.7748C66.6094 14.7706 66.8197 14.884 66.7608 15.4422C66.7019 16.0131 66.9375 16.7728 66.6472 17.117L66.6514 17.1212Z" fill="#FEFEFE"/>
<path d="M54.3767 11.7863C54.3599 9.85549 54.343 9.85549 56.2486 9.85549C59.5296 9.85549 62.8064 9.86808 66.0875 9.8429C66.6217 9.8429 66.8236 9.96042 66.7647 10.5145C66.7058 11.0811 66.9414 11.8409 66.6553 12.185C66.3104 12.588 65.528 12.3068 64.9349 12.3152C63.4626 12.3361 61.9946 12.3194 60.5223 12.3194C58.6673 12.3194 56.808 12.3068 54.953 12.3278C54.5281 12.3319 54.3767 12.248 54.3767 11.7821V11.7863Z" fill="#FEFEFE"/>
<path d="M10.9999 62.7888C10.6887 63.0952 9.86 62.8811 9.26268 62.8895C8.82941 62.8979 8.39615 62.8895 7.96288 62.8895C7.12159 62.8895 6.27609 62.8769 5.4348 62.8937C5.08146 62.9021 4.94265 62.8266 4.92582 62.4278C4.85852 60.4215 4.8459 60.4257 6.85238 60.4257C8.1059 60.4257 9.35943 60.4382 10.613 60.4173C11.0042 60.4131 11.1892 60.497 11.1472 60.9251C11.0799 61.5631 11.4122 62.39 11.0042 62.7888H10.9999Z" fill="#FEFEFE"/>
<path d="M24.608 62.7804C24.2504 63.1414 23.4638 62.8811 22.8665 62.8811C19.9724 62.8937 17.0784 62.8727 14.1844 62.8979C13.7048 62.8979 13.5618 62.7678 13.5997 62.3019C13.6459 61.7058 13.402 60.9041 13.7048 60.56C14.0582 60.157 14.8784 60.4382 15.4968 60.4298C16.7503 60.4131 18.0038 60.4256 19.2616 60.4256C20.9021 60.4256 22.5426 60.4424 24.1831 60.413C24.629 60.4089 24.793 60.5222 24.7468 60.9755C24.6795 61.5925 25.0034 62.3858 24.6164 62.7804H24.608Z" fill="#FEFEFE"/>
<path d="M8.03441 12.3235H7.38241C6.73041 12.3235 6.08262 12.3068 5.43061 12.3277C5.07307 12.3403 4.93846 12.2564 4.92163 11.8576C4.85012 9.85129 4.8375 9.85548 6.8566 9.85548C7.69789 9.85548 8.54339 9.87227 9.38889 9.84709C9.75906 9.8345 9.87684 9.94363 9.89367 10.3256C9.97779 12.3194 9.98621 12.3194 8.03441 12.3194V12.3235Z" fill="#FEFEFE"/>
<path d="M66.6514 17.1212C66.3107 17.5241 65.5241 17.2555 64.9352 17.2555C59.1934 17.2681 53.4558 17.2555 47.714 17.2723C47.1377 17.2723 46.9274 17.1589 46.94 16.5335C46.9821 14.7874 46.9484 14.7874 48.7151 14.7874H56.8925C59.9548 14.7874 63.0171 14.8 66.0794 14.7748C66.6094 14.7706 66.8197 14.884 66.7608 15.4422C66.7019 16.0131 66.9375 16.7728 66.6472 17.117L66.6514 17.1212Z" fill="white"/>
<path d="M66.6514 12.1892C66.3065 12.5922 65.5241 12.311 64.931 12.3194C63.4587 12.3403 61.9907 12.3236 60.5184 12.3236C58.6634 12.3236 56.8041 12.311 54.9491 12.3319C54.5242 12.3361 54.3728 12.2522 54.3728 11.7863C54.356 9.85549 54.3391 9.85549 56.2447 9.85549C59.5257 9.85549 62.8025 9.86808 66.0836 9.8429C66.6178 9.8429 66.8197 9.96042 66.7608 10.5145C66.7019 11.0811 66.9375 11.8409 66.6514 12.185V12.1892Z" fill="white"/>
<path d="M50.0651 12.3236H49.4173C48.7653 12.3236 48.1175 12.2984 47.4655 12.3319C47.0364 12.3529 46.9523 12.1892 46.9481 11.7947C46.9103 9.85549 46.9018 9.85969 48.8032 9.85969C49.6445 9.85969 50.4899 9.88067 51.3312 9.85129C51.7519 9.8387 51.9117 9.93944 51.9201 10.4011C51.9538 12.3319 51.9748 12.3319 50.0651 12.3319V12.3236Z" fill="white"/>
<path d="M24.608 62.7804C24.2504 63.1414 23.4638 62.8811 22.8665 62.8811C19.9724 62.8937 17.0784 62.8727 14.1844 62.8979C13.7048 62.8979 13.5618 62.7678 13.5997 62.3019C13.6459 61.7058 13.402 60.9041 13.7048 60.56C14.0582 60.157 14.8784 60.4382 15.4968 60.4298C16.7503 60.4131 18.0038 60.4256 19.2616 60.4256C20.9021 60.4256 22.5426 60.4424 24.1831 60.413C24.629 60.4089 24.793 60.5222 24.7468 60.9755C24.6795 61.5925 25.0034 62.3858 24.6164 62.7804H24.608Z" fill="white"/>
<path d="M10.9999 62.7888C10.6887 63.0952 9.86 62.8811 9.26268 62.8895C8.82941 62.8979 8.39615 62.8895 7.96288 62.8895C7.12159 62.8895 6.27609 62.8769 5.4348 62.8937C5.08146 62.9021 4.94265 62.8266 4.92582 62.4278C4.85852 60.4215 4.8459 60.4257 6.85238 60.4257C8.1059 60.4257 9.35943 60.4382 10.613 60.4173C11.0042 60.4131 11.1892 60.497 11.1472 60.9251C11.0799 61.5631 11.4122 62.39 11.0042 62.7888H10.9999Z" fill="white"/>
<path d="M8.03441 12.3235H7.38241C6.73041 12.3235 6.08262 12.3068 5.43061 12.3277C5.07307 12.3403 4.93846 12.2564 4.92163 11.8576C4.85012 9.85129 4.8375 9.85548 6.8566 9.85548C7.69789 9.85548 8.54339 9.87227 9.38889 9.84709C9.75906 9.8345 9.87684 9.94363 9.89367 10.3256C9.97779 12.3194 9.98621 12.3194 8.03441 12.3194V12.3235Z" fill="white"/>
</g>
<defs>
<clipPath id="clip0_106_508">
<rect width="74" height="74" fill="white"/>
</clipPath>
</defs>
</svg>
