<svg width="90" height="90" viewBox="0 0 90 90" fill="none" xmlns="http://www.w3.org/2000/svg">
<g clip-path="url(#clip0_106_482)">
<path d="M13.9951 25.11C14.8235 25.11 15.4951 24.4384 15.4951 23.61C15.4951 22.7816 14.8235 22.11 13.9951 22.11C13.1667 22.11 12.4951 22.7816 12.4951 23.61C12.4951 24.4384 13.1667 25.11 13.9951 25.11Z" fill="#06C279"/>
<path d="M24 25.11C24.8284 25.11 25.5 24.4384 25.5 23.61C25.5 22.7816 24.8284 22.11 24 22.11C23.1716 22.11 22.5 22.7816 22.5 23.61C22.5 24.4384 23.1716 25.11 24 25.11Z" fill="#06C279"/>
<path d="M19.0049 25.11C19.8333 25.11 20.5049 24.4384 20.5049 23.61C20.5049 22.7816 19.8333 22.11 19.0049 22.11C18.1765 22.11 17.5049 22.7816 17.5049 23.61C17.5049 24.4384 18.1765 25.11 19.0049 25.11Z" fill="#06C279"/>
<path d="M30.0002 45.375L34.5002 40.875C34.7827 40.5925 34.9413 40.2094 34.9413 39.81C34.9413 39.4105 34.7827 39.0274 34.5002 38.745C34.2177 38.4625 33.8346 38.3038 33.4352 38.3038C33.0357 38.3038 32.6527 38.4625 32.3702 38.745L26.7902 44.34C26.5108 44.621 26.354 45.0012 26.354 45.3975C26.354 45.7938 26.5108 46.174 26.7902 46.455L32.3702 52.05C32.5096 52.1906 32.6755 52.3022 32.8583 52.3783C33.0411 52.4545 33.2372 52.4937 33.4352 52.4937C33.6332 52.4937 33.8293 52.4545 34.0121 52.3783C34.1948 52.3022 34.3608 52.1906 34.5002 52.05C34.7796 51.769 34.9364 51.3888 34.9364 50.9925C34.9364 50.5962 34.7796 50.216 34.5002 49.935L30.0002 45.375Z" fill="#06C279"/>
<path d="M51.48 52.02C51.761 52.2994 52.1412 52.4562 52.5375 52.4562C52.9337 52.4562 53.3139 52.2994 53.595 52.02L59.19 46.5C59.4693 46.219 59.6262 45.8388 59.6262 45.4425C59.6262 45.0463 59.4693 44.6661 59.19 44.385L53.595 38.79C53.3125 38.5096 52.9302 38.3528 52.5322 38.3542C52.1341 38.3556 51.7529 38.5151 51.4725 38.7975C51.192 39.08 51.0352 39.4623 51.0366 39.8603C51.038 40.2584 51.1975 40.6396 51.48 40.92L55.98 45.42L51.48 49.92C51.2051 50.2004 51.0512 50.5774 51.0512 50.97C51.0512 51.3627 51.2051 51.7397 51.48 52.02Z" fill="#06C279"/>
<path d="M46.4999 39.225C46.3287 39.1259 46.1396 39.0615 45.9434 39.0358C45.7472 39.01 45.5479 39.0233 45.3569 39.0749C45.1659 39.1265 44.987 39.2153 44.8305 39.3363C44.6739 39.4574 44.5429 39.6082 44.4449 39.78L38.9099 49.5001C38.8014 49.6708 38.7285 49.8617 38.6957 50.0613C38.6628 50.2609 38.6707 50.4651 38.7189 50.6616C38.767 50.8581 38.8544 51.0429 38.9757 51.2047C39.0971 51.3666 39.25 51.5022 39.4251 51.6034C39.6003 51.7047 39.7941 51.7694 39.9949 51.7938C40.1957 51.8182 40.3994 51.8017 40.5937 51.7454C40.788 51.689 40.9689 51.5939 41.1255 51.4658C41.2821 51.3378 41.4111 51.1793 41.5049 51.0001L47.0999 41.325C47.2046 41.1493 47.2722 40.954 47.2986 40.7511C47.325 40.5483 47.3096 40.3422 47.2534 40.1455C47.1972 39.9488 47.1014 39.7657 46.9718 39.6074C46.8422 39.4491 46.6816 39.319 46.4999 39.225Z" fill="#06C279"/>
<path d="M83.79 60C83.7015 59.9993 83.6153 59.9717 83.543 59.9207C83.4706 59.8698 83.4155 59.798 83.385 59.715C82.7881 58.1449 81.9423 56.6811 80.88 55.38C80.8297 55.3072 80.8027 55.2209 80.8027 55.1325C80.8027 55.044 80.8297 54.9577 80.88 54.885C81.3368 54.0932 81.4607 53.1524 81.2245 52.2693C80.9882 51.3862 80.4112 50.6329 79.62 50.175L78.495 49.5V22.11C78.495 20.9165 78.0209 19.7719 77.177 18.928C76.333 18.0841 75.1884 17.61 73.995 17.61H12C10.8065 17.61 9.66193 18.0841 8.81802 18.928C7.97411 19.7719 7.5 20.9165 7.5 22.11V60.12C7.50395 61.0457 7.87344 61.9324 8.52802 62.587C9.18261 63.2415 10.0693 63.611 10.995 63.615H31.5L30 69.165H28.005C26.544 69.166 25.126 69.6595 23.9801 70.5659C22.8342 71.4722 22.0274 72.7385 21.69 74.16H18C17.6022 74.16 17.2206 74.318 16.9393 74.5993C16.658 74.8806 16.5 75.2621 16.5 75.66C16.5 76.0578 16.658 76.4393 16.9393 76.7206C17.2206 77.0019 17.6022 77.16 18 77.16H56.205C56.1796 77.5183 56.2151 77.8785 56.31 78.225C56.4225 78.665 56.6226 79.0778 56.8984 79.4386C57.1741 79.7995 57.5199 80.1009 57.915 80.325L61.08 82.155C61.473 82.3806 61.9065 82.5265 62.3559 82.5845C62.8053 82.6425 63.2617 82.6115 63.6991 82.4931C64.1365 82.3747 64.5462 82.1713 64.905 81.8945C65.2637 81.6177 65.5645 81.273 65.79 80.88C65.8386 80.8034 65.9085 80.7428 65.9911 80.7055C66.0737 80.6682 66.1654 80.6558 66.255 80.67C67.9027 80.955 69.5872 80.955 71.235 80.67C71.3262 80.6552 71.4198 80.6688 71.503 80.7091C71.5862 80.7494 71.655 80.8143 71.7 80.895C72.0057 81.4184 72.444 81.8521 72.9706 82.1523C73.4973 82.4525 74.0938 82.6086 74.7 82.605C75.3047 82.6108 75.9001 82.4555 76.425 82.155L79.59 80.325C79.9829 80.0983 80.3271 79.796 80.6025 79.4355C80.878 79.0751 81.0794 78.6637 81.195 78.225C81.3144 77.7889 81.3454 77.3333 81.2862 76.8851C81.2269 76.4369 81.0786 76.005 80.85 75.615C80.7984 75.5399 80.7708 75.451 80.7708 75.36C80.7708 75.2689 80.7984 75.18 80.85 75.105C81.909 73.8071 82.7546 72.3488 83.355 70.785C83.3836 70.7007 83.4382 70.6277 83.511 70.5764C83.5838 70.5252 83.671 70.4984 83.76 70.5C84.6738 70.496 85.549 70.1313 86.1951 69.4851C86.8413 68.839 87.206 67.9638 87.21 67.05V63.39C87.1944 62.4906 86.8281 61.6329 86.1892 60.9996C85.5504 60.3664 84.6895 60.0077 83.79 60ZM10.5 22.11C10.5 21.7122 10.658 21.3306 10.9393 21.0493C11.2206 20.768 11.6022 20.61 12 20.61H73.995C74.3928 20.61 74.7743 20.768 75.0556 21.0493C75.3369 21.3306 75.495 21.7122 75.495 22.11V26.61H10.5V22.11ZM10.995 60.615C10.93 60.615 10.8656 60.6022 10.8056 60.5773C10.7455 60.5524 10.6909 60.516 10.645 60.47C10.599 60.424 10.5626 60.3695 10.5377 60.3094C10.5128 60.2494 10.5 60.185 10.5 60.12V29.61H75.495V48C74.7852 47.8115 74.0336 47.8554 73.3506 48.1254C72.6676 48.3953 72.0891 48.8771 71.7 49.5C71.6533 49.574 71.5854 49.6322 71.5051 49.6669C71.4248 49.7017 71.3359 49.7115 71.25 49.695C69.601 49.4249 67.919 49.4249 66.27 49.695C66.184 49.7137 66.0943 49.705 66.0136 49.67C65.9328 49.635 65.8651 49.5755 65.82 49.5C65.5947 49.1068 65.2937 48.762 64.9346 48.4856C64.5754 48.2092 64.1651 48.0066 63.7273 47.8894C63.2895 47.7723 62.8328 47.743 62.3836 47.8032C61.9344 47.8633 61.5016 48.0118 61.11 48.24L57.945 50.07C57.5509 50.2917 57.2057 50.5906 56.9299 50.9488C56.6541 51.3071 56.4535 51.7173 56.34 52.155C56.1001 53.0393 56.2187 53.9825 56.67 54.78C56.7247 54.8509 56.7544 54.9379 56.7544 55.0275C56.7544 55.117 56.7247 55.2041 56.67 55.275C55.6077 56.5761 54.7619 58.0399 54.165 59.61C54.1345 59.693 54.0794 59.7648 54.007 59.8157C53.9346 59.8667 53.8485 59.8943 53.76 59.895C53.0253 59.896 52.3103 60.1326 51.72 60.57L10.995 60.615ZM51 69.165H33L34.5 63.615H50.25V67.05C50.2596 67.8184 50.5233 68.5621 51 69.165ZM28.02 72.165H54.72C55.0628 72.8565 55.4538 73.5232 55.89 74.16H24.855C25.1382 73.564 25.5843 73.0604 26.1417 72.7073C26.6992 72.3543 27.3452 72.1662 28.005 72.165H28.02ZM84.24 67.05C84.24 67.1693 84.1926 67.2838 84.1082 67.3682C84.0238 67.4526 83.9093 67.5 83.79 67.5C83.0913 67.5017 82.4094 67.7146 81.8339 68.1108C81.2583 68.507 80.816 69.0679 80.565 69.72C80.0855 70.9846 79.4069 72.1645 78.555 73.215C78.1157 73.7576 77.8505 74.4203 77.7943 75.1163C77.7381 75.8122 77.8934 76.5088 78.24 77.115C78.2641 77.1666 78.2766 77.2229 78.2766 77.28C78.2766 77.337 78.2641 77.3933 78.24 77.445C78.2269 77.5045 78.2015 77.5607 78.1653 77.6098C78.1291 77.6589 78.083 77.6998 78.03 77.73L74.91 79.5C74.8579 79.5289 74.8005 79.5473 74.7413 79.5539C74.682 79.5605 74.622 79.5553 74.5648 79.5386C74.5076 79.5218 74.4543 79.4939 74.408 79.4564C74.3616 79.4188 74.3232 79.3725 74.295 79.32C73.9403 78.7155 73.4107 78.2327 72.776 77.9355C72.1413 77.6382 71.4314 77.5404 70.74 77.655C69.4195 77.8799 68.0705 77.8799 66.75 77.655C66.057 77.5418 65.346 77.6419 64.7111 77.9419C64.0762 78.2419 63.5475 78.7277 63.195 79.335C63.1327 79.4355 63.0344 79.5086 62.9202 79.5392C62.8059 79.5699 62.6842 79.5559 62.58 79.5L59.415 77.67C59.362 77.6398 59.3159 77.5989 59.2797 77.5498C59.2435 77.5007 59.2181 77.4445 59.205 77.385C59.1809 77.3333 59.1684 77.277 59.1684 77.22C59.1684 77.1629 59.1809 77.1066 59.205 77.055C59.5475 76.4476 59.7005 75.7517 59.6444 75.0568C59.5882 74.3618 59.3255 73.6995 58.89 73.155C58.0303 72.1072 57.3464 70.9269 56.865 69.66C56.6134 69.0251 56.1775 68.4801 55.6134 68.0951C55.0493 67.7101 54.3829 67.5029 53.7 67.5C53.5806 67.5 53.4662 67.4526 53.3818 67.3682C53.2974 67.2838 53.25 67.1693 53.25 67.05V63.39C53.2479 63.3303 53.2581 63.2709 53.28 63.2153C53.3018 63.1598 53.3349 63.1093 53.3771 63.0671C53.4193 63.0249 53.4698 62.9918 53.5253 62.97C53.5809 62.9481 53.6403 62.9379 53.7 62.94C54.3966 62.9373 55.0761 62.7238 55.6491 62.3275C56.222 61.9313 56.6616 61.3708 56.91 60.72C57.388 59.4515 58.0722 58.2706 58.935 57.225C59.3705 56.6805 59.6332 56.0182 59.6894 55.3232C59.7455 54.6282 59.5925 53.9323 59.25 53.325C59.2256 53.2708 59.2129 53.212 59.2129 53.1525C59.2129 53.093 59.2256 53.0342 59.25 52.98C59.2622 52.922 59.2874 52.8675 59.3238 52.8207C59.3602 52.7739 59.4068 52.7361 59.46 52.71L62.625 50.88C62.6986 50.8595 62.7764 50.8595 62.85 50.88C62.925 50.8809 62.9987 50.9006 63.0642 50.9373C63.1297 50.974 63.185 51.0265 63.225 51.09C63.5791 51.6958 64.1081 52.1804 64.7425 52.4802C65.3769 52.78 66.0871 52.881 66.78 52.77C68.1005 52.545 69.4495 52.545 70.77 52.77C71.4674 52.8642 72.1771 52.7456 72.806 52.4298C73.435 52.114 73.9539 51.6156 74.295 51C74.3243 50.9505 74.3632 50.9073 74.4093 50.873C74.4554 50.8386 74.5079 50.8137 74.5637 50.7998C74.6195 50.7858 74.6775 50.7831 74.7344 50.7917C74.7912 50.8003 74.8458 50.8201 74.895 50.85L78.06 52.68C78.1132 52.7061 78.1598 52.7439 78.1962 52.7907C78.2325 52.8375 78.2578 52.892 78.27 52.95C78.2944 53.0042 78.307 53.063 78.307 53.1225C78.307 53.182 78.2944 53.2408 78.27 53.295C77.9247 53.8988 77.7701 54.5929 77.8263 55.2862C77.8825 55.9795 78.1469 56.6396 78.585 57.18C79.4373 58.2357 80.1158 59.4206 80.595 60.69C80.8314 61.353 81.2634 61.9287 81.8338 62.3411C82.4042 62.7535 83.0863 62.9832 83.79 63C83.8496 62.9979 83.9091 63.0081 83.9646 63.03C84.0202 63.0518 84.0706 63.0849 84.1128 63.1271C84.155 63.1693 84.1881 63.2198 84.21 63.2753C84.2319 63.3309 84.2421 63.3903 84.24 63.45V67.05Z" fill="#06C279"/>
<path d="M68.7451 58.4099C67.3982 58.4099 66.0815 58.8093 64.9616 59.5576C63.8417 60.3059 62.9689 61.3695 62.4534 62.6139C61.938 63.8582 61.8031 65.2275 62.0659 66.5485C62.3287 67.8695 62.9773 69.083 63.9297 70.0354C64.8821 70.9878 66.0955 71.6363 67.4165 71.8991C68.7375 72.1619 70.1068 72.027 71.3511 71.5116C72.5955 70.9961 73.6591 70.1233 74.4074 69.0034C75.1557 67.8835 75.5551 66.5668 75.5551 65.22C75.5551 63.4138 74.8376 61.6817 73.5605 60.4045C72.2833 59.1274 70.5512 58.4099 68.7451 58.4099ZM68.7451 69.03C67.9915 69.03 67.2549 68.8065 66.6283 68.3879C66.0018 67.9692 65.5135 67.3742 65.2251 66.678C64.9367 65.9818 64.8613 65.2157 65.0083 64.4767C65.1553 63.7376 65.5181 63.0587 66.051 62.5259C66.5838 61.993 67.2627 61.6302 68.0018 61.4832C68.7408 61.3361 69.5069 61.4116 70.2031 61.7C70.8993 61.9883 71.4943 62.4767 71.913 63.1032C72.3316 63.7298 72.5551 64.4664 72.5551 65.22C72.5472 66.2252 72.1423 67.1866 71.4286 67.8947C70.7149 68.6027 69.7504 69 68.7451 69V69.03Z" fill="#06C279"/>
</g>
<defs>
<clipPath id="clip0_106_482">
<rect width="90" height="90" fill="white"/>
</clipPath>
</defs>
</svg>
