<svg width="80" height="80" viewBox="0 0 80 80" fill="none" xmlns="http://www.w3.org/2000/svg">
<g clip-path="url(#clip0_106_465)">
<path d="M62.0948 7.9639C60.5483 6.43038 59.1107 5.01013 57.6819 3.58117C57.4466 3.34592 57.2941 3.26314 57.0153 3.54196C55.5777 4.99706 54.1227 6.43474 52.6721 7.87677C52.8507 8.08588 53.0249 7.99875 53.173 8.00746C54.1663 8.0641 54.6586 8.53026 54.6586 9.51484C54.6673 19.9271 54.6586 30.335 54.6716 40.7472C54.6716 41.2177 54.5496 41.3397 54.0792 41.3441C51.9968 41.3658 51.9968 41.3833 51.9968 39.3313C51.9968 31.8336 51.9881 24.3403 52.0142 16.8426C52.0142 16.1499 51.8531 15.9887 51.1604 15.9931C36.4752 16.0149 21.7899 16.0105 7.10464 16.0105C4.2948 16.0105 2.6873 17.6312 2.6873 20.4629C2.6873 21.905 2.66988 23.3514 2.69602 24.7934C2.70473 25.2247 2.58275 25.3423 2.14712 25.351C0.0255734 25.399 0.0212172 25.412 0.0255735 23.2991C0.0255735 21.9398 -0.0702662 20.5631 0.0865624 19.2213C0.496059 15.7622 3.29719 13.353 6.82583 13.3486C15.2075 13.3356 23.5934 13.3486 31.975 13.3486C38.3876 13.3486 44.8001 13.3356 51.2127 13.3661C51.8836 13.3661 52.023 13.1744 52.0099 12.547C51.9707 10.6824 51.9968 10.6824 50.1105 10.6824C49.8317 10.6824 49.5529 10.6955 49.2785 10.6737C48.7339 10.6388 48.3418 10.3687 48.1153 9.86773C47.8844 9.35365 47.9977 8.89621 48.3375 8.47362C48.442 8.34292 48.564 8.22965 48.6816 8.11202C51.156 5.63748 53.6261 3.16294 56.1049 0.692756C57.0328 -0.235197 57.6296 -0.23084 58.5749 0.710183C61.0493 3.18037 63.5194 5.65926 65.9981 8.12945C66.4773 8.60432 66.8433 9.10532 66.5601 9.81545C66.2639 10.5561 65.654 10.7129 64.9308 10.6868C64.4037 10.665 63.8722 10.7303 63.3495 10.6693C62.7309 10.5996 62.6394 10.8567 62.6437 11.41C62.6699 13.3486 62.6437 13.3225 64.5518 13.353C66.1288 13.3791 67.7189 13.1918 69.2872 13.4924C72.2669 14.0631 74.6019 16.6509 74.6237 19.6744C74.6803 28.5008 74.6455 37.3316 74.6586 46.1581C74.6586 46.5502 74.5627 46.6635 74.1576 46.6765C71.9837 46.7637 71.9881 46.7767 71.9881 44.5854C71.9881 36.5605 71.9881 28.5401 71.9881 20.5152C71.9881 17.5832 70.4024 16.0105 67.4531 16.0105C66.1201 16.0105 64.7871 16.0454 63.4584 15.9931C62.8136 15.9669 62.6437 16.1412 62.6437 16.7991C62.6699 24.2401 62.6481 31.6812 62.6786 39.1179C62.6786 39.8367 62.5348 40.0458 61.7899 40.0197C59.9994 39.9587 59.9951 39.9979 59.9951 38.2117C59.9951 28.8276 59.9951 19.4435 59.9951 10.0594C59.9951 8.39084 60.2739 8.09024 62.0948 7.9639Z" fill="#06C279"/>
<path d="M49.3314 21.6653C49.3314 20.476 48.861 20.0142 47.663 20.0142C45.3018 20.0098 42.945 20.0142 40.5839 20.0142C39.0505 20.0142 38.6715 20.3932 38.6715 21.9267V48.8243C38.6715 50.6715 38.6715 50.6366 36.8505 50.6845C36.1709 50.702 35.9836 50.5495 35.9879 49.8437C36.0184 43.5964 36.0097 37.3534 36.0054 31.106C36.0054 29.7903 35.5697 29.346 34.2759 29.346C31.8886 29.3416 29.5013 29.346 27.1141 29.346C25.768 29.346 25.3454 29.7773 25.3454 31.1496C25.3454 37.0048 25.3454 42.8645 25.3454 48.7197C25.3454 50.6845 25.3454 50.6584 23.3807 50.6889C22.7839 50.6976 22.6619 50.5233 22.6662 49.9526C22.6967 46.7331 22.6837 43.5136 22.6793 40.2941C22.6793 39.157 22.1957 38.6821 21.0544 38.6821C18.641 38.6734 16.2232 38.6778 13.8098 38.6821C12.4419 38.6821 12.0193 39.1047 12.0193 40.464C12.0193 43.653 12.0062 46.8464 12.028 50.0398C12.0324 50.5364 11.9365 50.715 11.4007 50.6889C10.4597 50.641 9.51441 50.6758 8.56909 50.6758C6.68279 50.6758 6.70893 50.6758 6.66972 52.5404C6.65665 53.1765 6.80476 53.3638 7.46693 53.3595C12.9646 53.329 18.458 53.342 23.9557 53.342C29.4534 53.342 34.8901 53.3246 40.3574 53.3638C41.1284 53.3682 41.355 53.2288 41.355 52.401C41.3201 42.8252 41.3419 33.2495 41.3114 23.6737C41.3114 22.9156 41.4203 22.6063 42.2698 22.6717C43.4547 22.7588 44.6571 22.7457 45.8464 22.676C46.5826 22.6281 46.6784 22.8939 46.6784 23.5474C46.6523 29.7119 46.661 35.8721 46.661 42.0323C46.661 44.0451 46.661 44.019 48.6736 44.032C49.253 44.0364 49.3358 43.8403 49.3358 43.3306C49.3184 36.1161 49.3271 28.8972 49.3227 21.6827L49.3314 21.6653ZM19.4556 50.6715C18.0398 50.6497 16.624 50.641 15.2082 50.6758C14.7377 50.6889 14.668 50.5059 14.6767 50.1007C14.6985 48.7154 14.6854 47.3256 14.6854 45.9359C14.6854 44.5461 14.7028 43.2696 14.6767 41.9409C14.668 41.5052 14.7333 41.3048 15.2474 41.3179C16.6632 41.3571 18.079 41.3527 19.4948 41.3179C19.9653 41.3048 20.0306 41.4878 20.0263 41.8886C20.0132 44.6376 20.0045 47.3866 20.0306 50.1312C20.035 50.6018 19.8651 50.6715 19.46 50.6671L19.4556 50.6715ZM33.3436 41.3353C33.3436 44.2194 33.3262 47.1078 33.3567 49.9962C33.3611 50.5364 33.2217 50.6932 32.6771 50.6758C31.3179 50.6366 29.9588 50.641 28.5996 50.6758C28.1291 50.6889 28.0028 50.5495 28.0071 50.0833C28.0245 44.2542 28.0245 38.4251 28.0071 32.5916C28.0071 32.1255 28.1291 31.9861 28.5996 31.9991C29.9588 32.0296 31.3223 32.0383 32.6815 31.9991C33.226 31.9817 33.3654 32.1342 33.3611 32.6788C33.3306 35.5672 33.348 38.4556 33.348 41.3397L33.3436 41.3353Z" fill="#06C279"/>
<path d="M28.887 66.6558H22.8883C17.6128 66.6558 12.3416 66.6558 7.06607 66.6558C2.85348 66.6558 0.0262145 63.824 0.0262145 59.6068C0.0262145 49.334 0.0305708 39.0655 0.00878906 28.7927C0.00878906 28.1305 0.187399 27.978 0.823426 27.9911C2.68794 28.0303 2.68794 28.0041 2.68794 29.8905C2.68794 38.3292 2.69666 46.768 2.67052 55.2067C2.67052 55.8645 2.84477 56.0083 3.48516 56.0083C15.3649 55.9865 27.2447 55.9996 39.1245 55.9734C39.852 55.9734 40.048 56.1303 40.0219 56.8665C39.9609 58.6571 40.0044 58.6571 38.2096 58.6571C26.6609 58.6571 15.1166 58.6658 3.56793 58.6397C2.85348 58.6397 2.65309 58.7834 2.66616 59.5284C2.71844 62.395 4.29108 63.9895 7.1837 63.9895C18.288 63.9895 29.388 63.9983 40.4923 63.9721C41.1676 63.9721 41.3767 64.1028 41.3549 64.8129C41.2983 66.6514 41.3375 66.6514 39.5078 66.6514C37.0944 66.6514 34.6766 66.6601 32.2632 66.6427C31.8581 66.6427 31.6272 66.7037 31.4965 67.1611C30.5337 70.4547 29.5318 73.7352 28.5472 77.0244C28.5255 77.0985 28.5472 77.1856 28.5472 77.2902H46.1992C45.7635 75.8351 45.3497 74.4105 44.901 72.999C44.7572 72.5502 44.779 72.2932 45.3061 72.1799C45.9509 72.0405 46.7132 71.5395 47.1881 71.7443C47.6803 71.9577 47.6498 72.9075 47.8459 73.5348C48.1769 74.5891 48.5167 75.6434 48.8043 76.7151C48.9219 77.1595 49.0918 77.4078 49.584 77.3207C49.7191 77.2946 49.8629 77.3207 49.9979 77.3207C52.2066 77.3207 52.1935 77.3207 52.0062 79.573C51.98 79.8954 51.8929 80.0261 51.5749 79.9869C51.4398 79.9695 51.2961 79.9869 51.1567 79.9869C41.943 79.9869 32.725 79.9782 23.5113 80.0044C22.8186 80.0044 22.64 79.8475 22.6574 79.1548C22.7097 77.3251 22.6792 77.2553 24.5089 77.3512C25.4804 77.4035 25.8027 77.0637 26.051 76.1662C26.9223 73.0207 27.9025 69.9101 28.8827 66.6601L28.887 66.6558Z" fill="#06C279"/>
<path d="M58.6669 54.4443C58.6494 54.2787 58.6407 54.1088 58.6669 53.9476C58.7801 53.3203 58.4447 53.2767 57.9611 53.3638C55.7917 53.7603 54.2931 54.9671 53.583 57.0713C53.0646 58.6092 53.1212 58.6614 54.6982 58.6614C54.8376 58.6614 54.977 58.6397 55.1121 58.6658C55.735 58.7878 56.0226 58.5699 56.1402 57.9165C56.2796 57.1453 56.7936 56.4396 57.5342 56.3045C58.7322 56.0823 58.7627 55.3548 58.6669 54.4486V54.4443ZM58.6669 54.4443C58.6494 54.2787 58.6407 54.1088 58.6669 53.9476C58.7801 53.3203 58.4447 53.2767 57.9611 53.3638C55.7917 53.7603 54.2931 54.9671 53.583 57.0713C53.0646 58.6092 53.1212 58.6614 54.6982 58.6614C54.8376 58.6614 54.977 58.6397 55.1121 58.6658C55.735 58.7878 56.0226 58.5699 56.1402 57.9165C56.2796 57.1453 56.7936 56.4396 57.5342 56.3045C58.7322 56.0823 58.7627 55.3548 58.6669 54.4486V54.4443ZM58.7714 47.9965C52.8773 47.966 48.0504 52.6798 48.0025 58.509C47.9546 64.4383 52.6769 69.2741 58.5536 69.3176C64.4695 69.3569 69.2876 64.6256 69.3225 58.7311C69.3573 52.8846 64.5871 48.0314 58.7714 48.0009V47.9965ZM58.6494 66.6514C54.2626 66.6601 50.6642 63.0485 50.6686 58.644C50.6773 54.2395 54.2582 50.6627 58.6756 50.6584C63.0363 50.6584 66.6433 54.2351 66.6608 58.5787C66.6782 63.0355 63.0973 66.6383 58.6538 66.6471L58.6494 66.6514ZM58.6669 53.9476C58.7801 53.3203 58.4447 53.2767 57.9611 53.3638C55.7917 53.7603 54.2931 54.9671 53.583 57.0713C53.0646 58.6092 53.1212 58.6614 54.6982 58.6614C54.8376 58.6614 54.977 58.6397 55.1121 58.6658C55.735 58.7878 56.0226 58.5699 56.1402 57.9165C56.2796 57.1453 56.7936 56.4396 57.5342 56.3045C58.7322 56.0823 58.7627 55.3548 58.6669 54.4486C58.6494 54.2831 58.6407 54.1132 58.6669 53.952V53.9476ZM58.6669 54.4443C58.6494 54.2787 58.6407 54.1088 58.6669 53.9476C58.7801 53.3203 58.4447 53.2767 57.9611 53.3638C55.7917 53.7603 54.2931 54.9671 53.583 57.0713C53.0646 58.6092 53.1212 58.6614 54.6982 58.6614C54.8376 58.6614 54.977 58.6397 55.1121 58.6658C55.735 58.7878 56.0226 58.5699 56.1402 57.9165C56.2796 57.1453 56.7936 56.4396 57.5342 56.3045C58.7322 56.0823 58.7627 55.3548 58.6669 54.4486V54.4443ZM58.6669 54.4443C58.6494 54.2787 58.6407 54.1088 58.6669 53.9476C58.7801 53.3203 58.4447 53.2767 57.9611 53.3638C55.7917 53.7603 54.2931 54.9671 53.583 57.0713C53.0646 58.6092 53.1212 58.6614 54.6982 58.6614C54.8376 58.6614 54.977 58.6397 55.1121 58.6658C55.735 58.7878 56.0226 58.5699 56.1402 57.9165C56.2796 57.1453 56.7936 56.4396 57.5342 56.3045C58.7322 56.0823 58.7627 55.3548 58.6669 54.4486V54.4443ZM58.6669 54.4443C58.6494 54.2787 58.6407 54.1088 58.6669 53.9476C58.7801 53.3203 58.4447 53.2767 57.9611 53.3638C55.7917 53.7603 54.2931 54.9671 53.583 57.0713C53.0646 58.6092 53.1212 58.6614 54.6982 58.6614C54.8376 58.6614 54.977 58.6397 55.1121 58.6658C55.735 58.7878 56.0226 58.5699 56.1402 57.9165C56.2796 57.1453 56.7936 56.4396 57.5342 56.3045C58.7322 56.0823 58.7627 55.3548 58.6669 54.4486V54.4443ZM58.6669 54.4443C58.6494 54.2787 58.6407 54.1088 58.6669 53.9476C58.7801 53.3203 58.4447 53.2767 57.9611 53.3638C55.7917 53.7603 54.2931 54.9671 53.583 57.0713C53.0646 58.6092 53.1212 58.6614 54.6982 58.6614C54.8376 58.6614 54.977 58.6397 55.1121 58.6658C55.735 58.7878 56.0226 58.5699 56.1402 57.9165C56.2796 57.1453 56.7936 56.4396 57.5342 56.3045C58.7322 56.0823 58.7627 55.3548 58.6669 54.4486V54.4443ZM58.7714 47.9965C52.8773 47.966 48.0504 52.6798 48.0025 58.509C47.9546 64.4383 52.6769 69.2741 58.5536 69.3176C64.4695 69.3569 69.2876 64.6256 69.3225 58.7311C69.3573 52.8846 64.5871 48.0314 58.7714 48.0009V47.9965ZM58.6494 66.6514C54.2626 66.6601 50.6642 63.0485 50.6686 58.644C50.6773 54.2395 54.2582 50.6627 58.6756 50.6584C63.0363 50.6584 66.6433 54.2351 66.6608 58.5787C66.6782 63.0355 63.0973 66.6383 58.6538 66.6471L58.6494 66.6514ZM58.6669 53.9476C58.7801 53.3203 58.4447 53.2767 57.9611 53.3638C55.7917 53.7603 54.2931 54.9671 53.583 57.0713C53.0646 58.6092 53.1212 58.6614 54.6982 58.6614C54.8376 58.6614 54.977 58.6397 55.1121 58.6658C55.735 58.7878 56.0226 58.5699 56.1402 57.9165C56.2796 57.1453 56.7936 56.4396 57.5342 56.3045C58.7322 56.0823 58.7627 55.3548 58.6669 54.4486C58.6494 54.2831 58.6407 54.1132 58.6669 53.952V53.9476ZM58.6669 54.4443C58.6494 54.2787 58.6407 54.1088 58.6669 53.9476C58.7801 53.3203 58.4447 53.2767 57.9611 53.3638C55.7917 53.7603 54.2931 54.9671 53.583 57.0713C53.0646 58.6092 53.1212 58.6614 54.6982 58.6614C54.8376 58.6614 54.977 58.6397 55.1121 58.6658C55.735 58.7878 56.0226 58.5699 56.1402 57.9165C56.2796 57.1453 56.7936 56.4396 57.5342 56.3045C58.7322 56.0823 58.7627 55.3548 58.6669 54.4486V54.4443ZM58.6669 54.4443C58.6494 54.2787 58.6407 54.1088 58.6669 53.9476C58.7801 53.3203 58.4447 53.2767 57.9611 53.3638C55.7917 53.7603 54.2931 54.9671 53.583 57.0713C53.0646 58.6092 53.1212 58.6614 54.6982 58.6614C54.8376 58.6614 54.977 58.6397 55.1121 58.6658C55.735 58.7878 56.0226 58.5699 56.1402 57.9165C56.2796 57.1453 56.7936 56.4396 57.5342 56.3045C58.7322 56.0823 58.7627 55.3548 58.6669 54.4486V54.4443ZM58.6669 54.4443C58.6494 54.2787 58.6407 54.1088 58.6669 53.9476C58.7801 53.3203 58.4447 53.2767 57.9611 53.3638C55.7917 53.7603 54.2931 54.9671 53.583 57.0713C53.0646 58.6092 53.1212 58.6614 54.6982 58.6614C54.8376 58.6614 54.977 58.6397 55.1121 58.6658C55.735 58.7878 56.0226 58.5699 56.1402 57.9165C56.2796 57.1453 56.7936 56.4396 57.5342 56.3045C58.7322 56.0823 58.7627 55.3548 58.6669 54.4486V54.4443ZM58.6669 54.4443C58.6494 54.2787 58.6407 54.1088 58.6669 53.9476C58.7801 53.3203 58.4447 53.2767 57.9611 53.3638C55.7917 53.7603 54.2931 54.9671 53.583 57.0713C53.0646 58.6092 53.1212 58.6614 54.6982 58.6614C54.8376 58.6614 54.977 58.6397 55.1121 58.6658C55.735 58.7878 56.0226 58.5699 56.1402 57.9165C56.2796 57.1453 56.7936 56.4396 57.5342 56.3045C58.7322 56.0823 58.7627 55.3548 58.6669 54.4486V54.4443ZM58.7714 47.9965C52.8773 47.966 48.0504 52.6798 48.0025 58.509C47.9546 64.4383 52.6769 69.2741 58.5536 69.3176C64.4695 69.3569 69.2876 64.6256 69.3225 58.7311C69.3573 52.8846 64.5871 48.0314 58.7714 48.0009V47.9965ZM58.6494 66.6514C54.2626 66.6601 50.6642 63.0485 50.6686 58.644C50.6773 54.2395 54.2582 50.6627 58.6756 50.6584C63.0363 50.6584 66.6433 54.2351 66.6608 58.5787C66.6782 63.0355 63.0973 66.6383 58.6538 66.6471L58.6494 66.6514ZM58.6669 53.9476C58.7801 53.3203 58.4447 53.2767 57.9611 53.3638C55.7917 53.7603 54.2931 54.9671 53.583 57.0713C53.0646 58.6092 53.1212 58.6614 54.6982 58.6614C54.8376 58.6614 54.977 58.6397 55.1121 58.6658C55.735 58.7878 56.0226 58.5699 56.1402 57.9165C56.2796 57.1453 56.7936 56.4396 57.5342 56.3045C58.7322 56.0823 58.7627 55.3548 58.6669 54.4486C58.6494 54.2831 58.6407 54.1132 58.6669 53.952V53.9476ZM58.7714 47.9965C52.8773 47.966 48.0504 52.6798 48.0025 58.509C47.9546 64.4383 52.6769 69.2741 58.5536 69.3176C64.4695 69.3569 69.2876 64.6256 69.3225 58.7311C69.3573 52.8846 64.5871 48.0314 58.7714 48.0009V47.9965ZM58.6494 66.6514C54.2626 66.6601 50.6642 63.0485 50.6686 58.644C50.6773 54.2395 54.2582 50.6627 58.6756 50.6584C63.0363 50.6584 66.6433 54.2351 66.6608 58.5787C66.6782 63.0355 63.0973 66.6383 58.6538 66.6471L58.6494 66.6514ZM58.6669 53.9476C58.7801 53.3203 58.4447 53.2767 57.9611 53.3638C55.7917 53.7603 54.2931 54.9671 53.583 57.0713C53.0646 58.6092 53.1212 58.6614 54.6982 58.6614C54.8376 58.6614 54.977 58.6397 55.1121 58.6658C55.735 58.7878 56.0226 58.5699 56.1402 57.9165C56.2796 57.1453 56.7936 56.4396 57.5342 56.3045C58.7322 56.0823 58.7627 55.3548 58.6669 54.4486C58.6494 54.2831 58.6407 54.1132 58.6669 53.952V53.9476ZM78.8019 73.1602C76.8764 71.1953 74.9378 69.2523 72.9688 67.3354C72.5244 66.9041 72.5244 66.6078 72.8032 66.0894C74.463 62.9483 75.0162 59.6068 74.4586 56.1041C73.1474 47.8615 65.6806 42.0323 57.299 42.6945C49.0872 43.3393 42.6703 50.3316 42.6616 58.6353C42.6486 70.7074 55.4954 78.4316 66.1772 72.7637C66.6608 72.5067 66.9134 72.5372 67.2881 72.9205C69.1874 74.8636 71.1173 76.7805 73.0515 78.6974C74.0796 79.7212 75.3125 80.196 76.7588 79.8998C78.2661 79.5948 79.3072 78.6756 79.7821 77.2248C80.2831 75.6957 79.9258 74.3059 78.8063 73.1602H78.8019ZM58.7278 71.9882C51.3482 71.997 45.3364 66.0284 45.3408 58.705C45.3451 51.2814 51.2872 45.3433 58.7235 45.3346C66.003 45.3259 71.9668 51.3162 71.9886 58.6527C72.0104 65.9457 66.0117 71.9795 58.7278 71.9882ZM77.3295 76.0616C77.299 76.6062 77.0376 77.007 76.5322 77.2205C75.9572 77.4688 75.4432 77.3163 75.0119 76.8894C74.0448 75.9353 73.0864 74.9681 72.1236 74.0053C71.2219 73.1035 70.3288 72.1843 69.4096 71.3042C69.096 71.0036 68.9653 70.8032 69.3965 70.4939C69.9716 70.0844 70.3462 69.1129 70.9431 69.1608C71.4745 69.2044 71.9363 70.0408 72.4286 70.5288C73.8618 71.9621 75.295 73.3954 76.7283 74.8287C77.0681 75.1685 77.373 75.5258 77.3295 76.0573V76.0616ZM58.7758 48.0009C52.8816 47.9704 48.0548 52.6842 48.0069 58.5133C47.959 64.4426 52.6812 69.2784 58.5579 69.322C64.4739 69.3612 69.292 64.63 69.3268 58.7355C69.3617 52.889 64.5915 48.0357 58.7758 48.0052V48.0009ZM58.6538 66.6558C54.2669 66.6645 50.6686 63.0529 50.673 58.6484C50.6817 54.2439 54.2626 50.6671 58.6799 50.6627C63.0406 50.6627 66.6477 54.2395 66.6651 58.583C66.6825 63.0398 63.1016 66.6427 58.6581 66.6514L58.6538 66.6558ZM58.6712 53.952C58.7845 53.3246 58.449 53.2811 57.9655 53.3682C55.796 53.7646 54.2974 54.9714 53.5874 57.0756C53.0689 58.6135 53.1256 58.6658 54.7026 58.6658C54.842 58.6658 54.9814 58.644 55.1164 58.6701C55.7394 58.7921 56.0269 58.5743 56.1445 57.9208C56.2839 57.1497 56.798 56.4439 57.5386 56.3089C58.7366 56.0867 58.767 55.3591 58.6712 54.453C58.6538 54.2874 58.6451 54.1175 58.6712 53.9563V53.952ZM58.6712 54.4486C58.6538 54.2831 58.6451 54.1132 58.6712 53.952C58.7845 53.3246 58.449 53.2811 57.9655 53.3682C55.796 53.7646 54.2974 54.9714 53.5874 57.0756C53.0689 58.6135 53.1256 58.6658 54.7026 58.6658C54.842 58.6658 54.9814 58.644 55.1164 58.6701C55.7394 58.7921 56.0269 58.5743 56.1445 57.9208C56.2839 57.1497 56.798 56.4439 57.5386 56.3089C58.7366 56.0867 58.767 55.3591 58.6712 54.453V54.4486ZM58.6712 54.4486C58.6538 54.2831 58.6451 54.1132 58.6712 53.952C58.7845 53.3246 58.449 53.2811 57.9655 53.3682C55.796 53.7646 54.2974 54.9714 53.5874 57.0756C53.0689 58.6135 53.1256 58.6658 54.7026 58.6658C54.842 58.6658 54.9814 58.644 55.1164 58.6701C55.7394 58.7921 56.0269 58.5743 56.1445 57.9208C56.2839 57.1497 56.798 56.4439 57.5386 56.3089C58.7366 56.0867 58.767 55.3591 58.6712 54.453V54.4486ZM58.7758 48.0009C52.8816 47.9704 48.0548 52.6842 48.0069 58.5133C47.959 64.4426 52.6812 69.2784 58.5579 69.322C64.4739 69.3612 69.292 64.63 69.3268 58.7355C69.3617 52.889 64.5915 48.0357 58.7758 48.0052V48.0009ZM58.6538 66.6558C54.2669 66.6645 50.6686 63.0529 50.673 58.6484C50.6817 54.2439 54.2626 50.6671 58.6799 50.6627C63.0406 50.6627 66.6477 54.2395 66.6651 58.583C66.6825 63.0398 63.1016 66.6427 58.6581 66.6514L58.6538 66.6558ZM58.6712 53.952C58.7845 53.3246 58.449 53.2811 57.9655 53.3682C55.796 53.7646 54.2974 54.9714 53.5874 57.0756C53.0689 58.6135 53.1256 58.6658 54.7026 58.6658C54.842 58.6658 54.9814 58.644 55.1164 58.6701C55.7394 58.7921 56.0269 58.5743 56.1445 57.9208C56.2839 57.1497 56.798 56.4439 57.5386 56.3089C58.7366 56.0867 58.767 55.3591 58.6712 54.453C58.6538 54.2874 58.6451 54.1175 58.6712 53.9563V53.952ZM58.6712 54.4486C58.6538 54.2831 58.6451 54.1132 58.6712 53.952C58.7845 53.3246 58.449 53.2811 57.9655 53.3682C55.796 53.7646 54.2974 54.9714 53.5874 57.0756C53.0689 58.6135 53.1256 58.6658 54.7026 58.6658C54.842 58.6658 54.9814 58.644 55.1164 58.6701C55.7394 58.7921 56.0269 58.5743 56.1445 57.9208C56.2839 57.1497 56.798 56.4439 57.5386 56.3089C58.7366 56.0867 58.767 55.3591 58.6712 54.453V54.4486ZM58.6712 54.4486C58.6538 54.2831 58.6451 54.1132 58.6712 53.952C58.7845 53.3246 58.449 53.2811 57.9655 53.3682C55.796 53.7646 54.2974 54.9714 53.5874 57.0756C53.0689 58.6135 53.1256 58.6658 54.7026 58.6658C54.842 58.6658 54.9814 58.644 55.1164 58.6701C55.7394 58.7921 56.0269 58.5743 56.1445 57.9208C56.2839 57.1497 56.798 56.4439 57.5386 56.3089C58.7366 56.0867 58.767 55.3591 58.6712 54.453V54.4486ZM58.7758 48.0009C52.8816 47.9704 48.0548 52.6842 48.0069 58.5133C47.959 64.4426 52.6812 69.2784 58.5579 69.322C64.4739 69.3612 69.292 64.63 69.3268 58.7355C69.3617 52.889 64.5915 48.0357 58.7758 48.0052V48.0009ZM58.6538 66.6558C54.2669 66.6645 50.6686 63.0529 50.673 58.6484C50.6817 54.2439 54.2626 50.6671 58.6799 50.6627C63.0406 50.6627 66.6477 54.2395 66.6651 58.583C66.6825 63.0398 63.1016 66.6427 58.6581 66.6514L58.6538 66.6558ZM58.6712 53.952C58.7845 53.3246 58.449 53.2811 57.9655 53.3682C55.796 53.7646 54.2974 54.9714 53.5874 57.0756C53.0689 58.6135 53.1256 58.6658 54.7026 58.6658C54.842 58.6658 54.9814 58.644 55.1164 58.6701C55.7394 58.7921 56.0269 58.5743 56.1445 57.9208C56.2839 57.1497 56.798 56.4439 57.5386 56.3089C58.7366 56.0867 58.767 55.3591 58.6712 54.453C58.6538 54.2874 58.6451 54.1175 58.6712 53.9563V53.952ZM58.6712 54.4486C58.6538 54.2831 58.6451 54.1132 58.6712 53.952C58.7845 53.3246 58.449 53.2811 57.9655 53.3682C55.796 53.7646 54.2974 54.9714 53.5874 57.0756C53.0689 58.6135 53.1256 58.6658 54.7026 58.6658C54.842 58.6658 54.9814 58.644 55.1164 58.6701C55.7394 58.7921 56.0269 58.5743 56.1445 57.9208C56.2839 57.1497 56.798 56.4439 57.5386 56.3089C58.7366 56.0867 58.767 55.3591 58.6712 54.453V54.4486ZM58.6712 54.4486C58.6538 54.2831 58.6451 54.1132 58.6712 53.952C58.7845 53.3246 58.449 53.2811 57.9655 53.3682C55.796 53.7646 54.2974 54.9714 53.5874 57.0756C53.0689 58.6135 53.1256 58.6658 54.7026 58.6658C54.842 58.6658 54.9814 58.644 55.1164 58.6701C55.7394 58.7921 56.0269 58.5743 56.1445 57.9208C56.2839 57.1497 56.798 56.4439 57.5386 56.3089C58.7366 56.0867 58.767 55.3591 58.6712 54.453V54.4486Z" fill="#06C279"/>
<path d="M71.967 8.01612C71.9408 8.01612 71.9103 8.01177 71.8842 8.01612C70.9998 8.19474 70.6513 7.8985 70.4945 6.94005C70.1155 4.65284 68.3033 3.02347 65.9508 2.73594C65.3758 2.66623 65.28 2.47019 65.3192 1.99096C65.3497 1.63372 65.3671 1.26341 65.3192 0.910529C65.2015 0.108917 65.5108 -0.0609895 66.2689 0.0566383C69.9282 0.627351 72.5856 3.15853 73.1911 6.71786C73.3392 7.58337 72.9312 8.01612 71.967 8.01612Z" fill="#06C279"/>
<path d="M8.07237 18.6767C8.92912 18.6767 9.35749 19.1094 9.35749 19.9749C9.35749 20.8869 8.89717 21.3429 7.97653 21.3429C7.11978 21.3429 6.69141 20.9102 6.69141 20.0446C6.69141 19.1327 7.15173 18.6767 8.07237 18.6767Z" fill="#06C279"/>
<path d="M12.019 19.9314C12.019 19.0949 12.4329 18.6767 13.2606 18.6767C14.2103 18.6767 14.6851 19.1457 14.6851 20.0839C14.6851 20.9203 14.2713 21.3386 13.4436 21.3386C12.4939 21.3386 12.019 20.8695 12.019 19.9314Z" fill="#06C279"/>
<path d="M18.7368 18.6767C19.5878 18.6767 20.0133 19.1109 20.0133 19.9793C20.0133 20.8477 19.55 21.3008 18.6236 21.3386C17.7726 21.3386 17.3472 20.9044 17.3472 20.0359C17.3472 19.1298 17.8104 18.6767 18.7368 18.6767Z" fill="#06C279"/>
<path d="M58.6669 54.4443C58.7627 55.3504 58.7322 56.078 57.5342 56.3002C56.7893 56.4396 56.2796 57.141 56.1402 57.9121C56.0225 58.5656 55.735 58.7834 55.1121 58.6614C54.977 58.6353 54.8376 58.6571 54.6982 58.6571C53.1212 58.6571 53.0646 58.6048 53.583 57.0669C54.2931 54.9627 55.7873 53.7603 57.9611 53.3595C58.4447 53.2723 58.7801 53.3203 58.6669 53.9433C58.6407 54.1044 58.6494 54.2744 58.6669 54.4399V54.4443Z" fill="#06C279"/>
<path d="M58.7717 47.9965C52.8776 47.966 48.0507 52.6798 48.0028 58.509C47.9549 64.4383 52.6772 69.2741 58.5539 69.3177C64.4698 69.3569 69.2879 64.6256 69.3228 58.7311C69.3576 52.8846 64.5874 48.0314 58.7717 48.0009V47.9965ZM58.6497 66.6514C54.2629 66.6601 50.6645 63.0485 50.6689 58.644C50.6776 54.2395 54.2585 50.6627 58.6759 50.6584C63.0366 50.6584 66.6436 54.2352 66.6611 58.5787C66.6785 63.0355 63.0976 66.6383 58.6541 66.6471L58.6497 66.6514Z" fill="#06C279"/>
<path d="M58.6669 54.4443C58.7627 55.3504 58.7322 56.078 57.5342 56.3002C56.7893 56.4396 56.2796 57.141 56.1402 57.9121C56.0225 58.5656 55.735 58.7834 55.1121 58.6614C54.977 58.6353 54.8376 58.6571 54.6982 58.6571C53.1212 58.6571 53.0646 58.6048 53.583 57.0669C54.2931 54.9627 55.7873 53.7603 57.9611 53.3595C58.4447 53.2723 58.7801 53.3203 58.6669 53.9433C58.6407 54.1044 58.6494 54.2744 58.6669 54.4399V54.4443Z" fill="#06C279"/>
<path d="M58.7717 47.9965C52.8776 47.966 48.0507 52.6798 48.0028 58.509C47.9549 64.4383 52.6772 69.2741 58.5539 69.3177C64.4698 69.3569 69.2879 64.6256 69.3228 58.7311C69.3576 52.8846 64.5874 48.0314 58.7717 48.0009V47.9965ZM58.6497 66.6514C54.2629 66.6601 50.6645 63.0485 50.6689 58.644C50.6776 54.2395 54.2585 50.6627 58.6759 50.6584C63.0366 50.6584 66.6436 54.2352 66.6611 58.5787C66.6785 63.0355 63.0976 66.6383 58.6541 66.6471L58.6497 66.6514Z" fill="#06C279"/>
<path d="M57.5342 56.3002C56.7893 56.4396 56.2796 57.141 56.1402 57.9121C56.0225 58.5656 55.735 58.7834 55.1121 58.6614C54.977 58.6353 54.8376 58.6571 54.6982 58.6571C53.1212 58.6571 53.0646 58.6048 53.583 57.0669C54.2931 54.9627 55.7873 53.7603 57.9611 53.3595C58.4447 53.2723 58.7801 53.3203 58.6669 53.9433C58.6407 54.1044 58.6494 54.2744 58.6669 54.4399C58.7627 55.3461 58.7322 56.0736 57.5342 56.2958V56.3002Z" fill="#06C279"/>
<path d="M57.5342 56.3002C56.7893 56.4396 56.2796 57.141 56.1402 57.9121C56.0225 58.5656 55.735 58.7834 55.1121 58.6614C54.977 58.6353 54.8376 58.6571 54.6982 58.6571C53.1212 58.6571 53.0646 58.6048 53.583 57.0669C54.2931 54.9627 55.7873 53.7603 57.9611 53.3595C58.4447 53.2723 58.7801 53.3203 58.6669 53.9433C58.6407 54.1044 58.6494 54.2744 58.6669 54.4399C58.7627 55.3461 58.7322 56.0736 57.5342 56.2958V56.3002Z" fill="#06C279"/>
</g>
<defs>
<clipPath id="clip0_106_465">
<rect width="80" height="80" fill="white"/>
</clipPath>
</defs>
</svg>
