<svg width="70" height="73" viewBox="0 0 70 73" fill="none" xmlns="http://www.w3.org/2000/svg">
<g clip-path="url(#clip0_106_501)">
<path d="M51.0108 42.5865C51.6394 41.6414 51.9509 40.8612 51.045 39.8279C44.6064 32.4781 40.673 23.6522 36.7187 14.8415C36.3426 14.0038 36.1888 12.7827 35.1271 12.6868C33.7748 12.5641 33.6836 13.9674 33.2943 14.8569C30.1775 21.9709 26.7645 28.9144 22.5101 35.4265C21.1844 37.4547 18.2443 39.0094 18.5596 41.3156C18.8749 43.6217 21.0629 45.6576 22.3772 47.843C22.9584 48.8073 24.5291 49.9939 21.9441 50.5575C21.344 50.6898 21.4579 51.5103 21.456 52.0739C21.4484 54.2573 21.4598 56.4427 21.4522 58.6262C21.4484 59.5636 21.6536 60.549 22.7494 60.3975C25.247 60.0525 24.757 61.7107 24.8614 63.1715C25.1008 66.4457 24.1701 69.7852 25.4046 73H44.6026C45.3281 72.1067 45.1648 71.0427 45.1648 70.0114C45.1686 67.3506 45.1496 64.6917 45.1781 62.0328C45.1857 61.3637 44.8514 60.3094 46.122 60.4781C48.5911 60.8039 48.6405 59.2722 48.5702 57.4837C48.498 55.6817 48.5455 53.8739 48.5569 52.07C48.5626 51.2745 48.5075 50.3677 47.5807 50.2949C46.0859 50.176 46.462 49.6086 47.009 48.7785C48.3594 46.7254 49.649 44.632 51.0108 42.5865ZM35.0682 37.6962C36.3825 37.7039 37.0567 38.5838 37.2733 39.8797C37.1099 41.2734 36.3882 42.1974 34.9371 42.1705C33.6456 42.1456 32.8061 41.3232 32.7891 40.0101C32.7701 38.5646 33.6323 37.6886 35.0682 37.6962ZM41.0092 70.7437C38.9446 70.6497 36.8725 70.7188 34.8023 70.7188C32.922 70.7188 31.0265 70.5731 29.1652 70.7609C27.2963 70.9507 26.9545 70.1743 27.0665 68.518C27.2033 66.5339 27.1843 64.5268 27.0722 62.5388C26.9867 61.0397 27.2697 60.3573 28.9981 60.4148C33.0379 60.5509 37.0871 60.5432 41.1269 60.4167C42.7242 60.3669 42.992 60.988 42.9331 62.374C42.8401 64.5536 42.7926 66.7486 42.9445 68.9225C43.0585 70.5443 42.3785 70.805 41.0092 70.7437ZM44.6292 58.2006C38.2343 58.1259 31.8356 58.0837 25.4426 58.2275C23.1236 58.2792 23.5946 56.7974 23.7694 55.6529C23.946 54.4931 22.5234 52.3806 25.378 52.4573C28.6676 52.5454 31.961 52.4764 35.2543 52.4764C38.3578 52.4764 41.4707 52.6145 44.5627 52.4323C46.8874 52.2962 46.4126 53.8586 46.2379 55.0011C46.0612 56.1609 47.4838 58.2351 44.6292 58.2006ZM35.0264 50.3639C26.0656 49.6987 26.039 50.1913 21.5928 42.4811C21.1407 41.699 20.8122 41.1373 21.5529 40.2669C26.4929 34.4545 29.8357 27.6626 33.1005 20.8265C33.2031 20.6137 33.3759 20.4373 33.8735 19.7529C33.8735 24.9998 33.8356 29.6908 33.9001 34.3798C33.9153 35.5108 33.1423 35.7179 32.4814 36.222C30.1737 37.9819 29.8338 40.8727 31.6229 42.9393C33.3949 44.9905 36.5648 45.0135 38.354 42.9891C40.1602 40.9456 39.8601 37.9934 37.5563 36.2623C36.787 35.6853 36.0786 35.3498 36.0995 34.1421C36.1812 29.5336 36.1337 24.9231 36.1337 19.5727C38.3805 23.8592 40.2342 27.5073 42.1924 31.0959C43.8695 34.1708 45.7004 37.1729 48.0479 39.7762C49.0849 40.9245 48.7145 41.6453 48.1846 42.9124C45.67 48.9357 41.5182 50.845 35.0264 50.3639Z" fill="#06C279"/>
<path d="M68.6045 1.30335C66.5628 -0.667348 63.4974 -0.398966 61.8013 2.14492C61.1081 3.18202 60.4604 3.47724 59.3322 3.46766C53.3134 3.42548 47.2946 3.41973 41.2757 3.47149C40.0393 3.48299 39.2967 3.34113 39.4999 1.82094C39.6784 0.467526 38.8921 -0.0232306 37.6196 0.0189437C36.3053 0.0630351 34.9853 0.0553671 33.671 0.0208607C31.9123 -0.0251477 30.1706 -0.2226 30.4498 2.52448C30.6018 4.02359 29.278 3.41398 28.6075 3.41973C22.6836 3.46957 16.7579 3.42548 10.8321 3.46766C9.62037 3.47533 8.88155 3.20119 8.12754 2.04906C6.54923 -0.372128 3.55026 -0.627091 1.51233 1.18832C-0.502809 2.9884 -0.502809 6.18407 1.51233 7.98415C3.55026 9.8034 6.41818 9.47176 8.17502 7.15216C8.67263 6.49271 8.86636 5.68373 9.99263 5.70482C13.7095 5.77575 17.4264 5.73165 21.9638 5.73165C16.8756 8.77971 13.681 12.4757 11.947 17.3334C11.5842 18.3514 10.9195 18.336 10.1978 18.2555C8.2168 18.0312 7.75148 19.0703 7.88633 20.8071C7.9737 21.94 8.02308 23.1017 7.87873 24.2213C7.55775 26.7057 8.45231 27.5224 10.9879 27.4534C16.9573 27.2923 16.9022 27.4208 16.9687 21.4205C16.9915 19.3731 16.8187 17.7916 13.945 18.2364C16.8908 11.199 21.8062 7.1905 28.9285 5.8946C29.8933 5.72015 30.6416 5.72399 30.4859 7.04481C30.2618 8.97141 31.4014 9.23404 32.9265 9.16503C34.4269 9.09794 35.9369 9.1056 37.4392 9.16311C38.801 9.21487 39.6784 8.80463 39.5132 7.25377C39.367 5.8946 39.9652 5.67414 41.158 5.90227C48.2556 7.25952 53.1861 11.2335 55.961 18.0638C54.0478 18.3654 53.0849 19.4147 53.0722 21.2116C53.0646 22.3503 53.1691 23.5005 53.0513 24.6277C52.8348 26.6962 53.5394 27.507 55.7103 27.4323C63.3625 27.1677 61.9115 28.6362 62.1261 21.016C62.1755 19.2351 61.9285 17.9737 59.7311 18.2574C58.9714 18.3571 58.3883 18.2421 58.035 17.2587C56.2972 12.4297 53.0969 8.75287 48.0391 5.72974C52.5366 5.72974 56.1756 5.76424 59.8128 5.70673C60.8346 5.6914 61.203 6.232 61.7367 6.97772C63.5429 9.50434 66.483 9.84174 68.557 7.90363C70.462 6.12273 70.4848 3.11876 68.6045 1.30335ZM4.38215 6.82244C3.09443 6.76684 2.29294 5.91377 2.29484 4.59678C2.29484 3.10726 3.29006 2.48039 4.49041 2.2676C5.90158 2.54366 6.76005 3.24912 6.73156 4.57186C6.70118 6.01346 5.81801 6.88378 4.38215 6.82244ZM14.7484 22.8506C14.7978 24.7523 14.1995 25.1606 12.4028 25.1855C10.5225 25.2124 10.0971 24.6296 10.0952 22.8123C10.0952 20.9585 10.5415 20.1342 12.4446 20.6115C14.418 20.0959 14.701 21.0812 14.7484 22.8506ZM35.2303 6.91829C33.8172 6.73809 32.389 7.156 32.6986 4.8134C32.8866 3.38906 32.4707 1.89762 34.784 2.27719C36.104 2.49381 37.9843 1.75959 37.2056 4.14628C37.4126 5.87351 37.5152 7.20776 35.2303 6.91829ZM59.9077 22.9867C60.0957 25.1395 59.0815 25.3849 57.3988 25.0571C55.1671 25.6744 55.4444 24.1753 55.2792 22.68C55.036 20.4889 56.2117 20.6403 57.7425 20.4908C59.9153 20.278 59.7729 21.4378 59.9077 22.9867ZM65.2732 6.82052C64.0026 6.69783 63.1973 5.83134 63.2751 4.5086C63.3606 3.06892 64.278 2.22926 65.7081 2.35195C66.9863 2.46122 67.6606 3.35264 67.7594 4.7118C67.4859 6.04604 66.7223 6.95855 65.2732 6.82052Z" fill="#06C279"/>
</g>
<defs>
<clipPath id="clip0_106_501">
<rect width="70" height="73" fill="white"/>
</clipPath>
</defs>
</svg>
